<?xml version="1.0" encoding="UTF-8" standalone="no"?>
<!DOCTYPE svg PUBLIC "-//W3C//DTD SVG 1.1//EN"
 "http://www.w3.org/Graphics/SVG/1.1/DTD/svg11.dtd">
<!-- Generated by graphviz version 15.1.0 (20260618.0150)
 -->
<!-- Title: NetzSuche Pages: 1 -->
<svg width="582pt" height="1415pt"
 viewBox="0.00 0.00 582.00 1415.00" xmlns="http://www.w3.org/2000/svg" xmlns:xlink="http://www.w3.org/1999/xlink">
<g id="graph0" class="graph" transform="scale(1 1) rotate(0) translate(4 1411.4)">
<title>NetzSuche</title>
<polygon fill="white" stroke="none" points="-4,4 -4,-1411.4 578.35,-1411.4 578.35,4 -4,4"/>
<!-- N1 -->
<g id="node1" class="node">
<title>N1</title>
<path fill="#cfe2ff" stroke="black" d="M260.1,-1387.15C260.1,-1387.15 34.5,-1387.15 34.5,-1387.15 28.5,-1387.15 22.5,-1381.15 22.5,-1375.15 22.5,-1375.15 22.5,-1317.25 22.5,-1317.25 22.5,-1311.25 28.5,-1305.25 34.5,-1305.25 34.5,-1305.25 260.1,-1305.25 260.1,-1305.25 266.1,-1305.25 272.1,-1311.25 272.1,-1317.25 272.1,-1317.25 272.1,-1375.15 272.1,-1375.15 272.1,-1381.15 266.1,-1387.15 260.1,-1387.15"/>
<text xml:space="preserve" text-anchor="middle" x="147.3" y="-1369.5" font-family="Helvetica,sans-Serif" font-size="11.00">Netz&#45;Forward&#45;Pass</text>
<text xml:space="preserve" text-anchor="middle" x="147.3" y="-1356" font-family="Helvetica,sans-Serif" font-size="11.00">state[708] → policy_logits[406], value,</text>
<text xml:space="preserve" text-anchor="middle" x="147.3" y="-1342.5" font-family="Helvetica,sans-Serif" font-size="11.00">moon_scores[5], points_forecast</text>
<text xml:space="preserve" text-anchor="middle" x="147.3" y="-1329" font-family="Helvetica,sans-Serif" font-size="11.00">(4 Tensoren — dome_slot/dome_rotation&#45;Köpfe</text>
<text xml:space="preserve" text-anchor="middle" x="147.3" y="-1315.5" font-family="Helvetica,sans-Serif" font-size="11.00">entfernt, siehe Baustein B unten)</text>
</g>
<!-- N2 -->
<g id="node2" class="node">
<title>N2</title>
<path fill="#cfe2ff" stroke="black" d="M261.98,-1238.5C261.98,-1238.5 32.62,-1238.5 32.62,-1238.5 26.62,-1238.5 20.63,-1232.5 20.63,-1226.5 20.63,-1226.5 20.63,-1141.6 20.63,-1141.6 20.63,-1135.6 26.63,-1129.6 32.63,-1129.6 32.63,-1129.6 261.98,-1129.6 261.98,-1129.6 267.98,-1129.6 273.98,-1135.6 273.98,-1141.6 273.98,-1141.6 273.98,-1226.5 273.98,-1226.5 273.98,-1232.5 267.98,-1238.5 261.98,-1238.5"/>
<text xml:space="preserve" text-anchor="middle" x="147.3" y="-1220.85" font-family="Helvetica,sans-Serif" font-size="11.00">Prior&#45;Berechnung</text>
<text xml:space="preserve" text-anchor="middle" x="147.3" y="-1207.35" font-family="Helvetica,sans-Serif" font-size="11.00">Aktionen → action_to_id (nur noch Moon&#45;Order&#45;</text>
<text xml:space="preserve" text-anchor="middle" x="147.3" y="-1193.85" font-family="Helvetica,sans-Serif" font-size="11.00">Varianten teilen sich eine ID; Kuppelplatzierung</text>
<text xml:space="preserve" text-anchor="middle" x="147.3" y="-1180.35" font-family="Helvetica,sans-Serif" font-size="11.00">ist jetzt ein echter zweistufiger Suchknoten,</text>
<text xml:space="preserve" text-anchor="middle" x="147.3" y="-1166.85" font-family="Helvetica,sans-Serif" font-size="11.00">keine Dome&#45;Faktorisierung mehr nötig)</text>
<text xml:space="preserve" text-anchor="middle" x="147.3" y="-1153.35" font-family="Helvetica,sans-Serif" font-size="11.00">→ maskierte Softmax über eindeutige legale IDs</text>
<text xml:space="preserve" text-anchor="middle" x="147.3" y="-1139.85" font-family="Helvetica,sans-Serif" font-size="11.00">→ Basis&#45;Prior, Moon&#45;Order&#45;Faktorisierung drauf</text>
</g>
<!-- N1&#45;&gt;N2 -->
<g id="edge1" class="edge">
<title>N1&#45;&gt;N2</title>
<path fill="none" stroke="black" d="M147.3,-1304.79C147.3,-1288.21 147.3,-1268.6 147.3,-1250.11"/>
<polygon fill="black" stroke="black" points="150.8,-1250.28 147.3,-1240.28 143.8,-1250.28 150.8,-1250.28"/>
</g>
<!-- N3 -->
<g id="node3" class="node">
<title>N3</title>
<path fill="#d9f2d9" stroke="black" d="M282.6,-1092.6C282.6,-1092.6 12,-1092.6 12,-1092.6 6,-1092.6 0,-1086.6 0,-1080.6 0,-1080.6 0,-1022.7 0,-1022.7 0,-1016.7 6,-1010.7 12,-1010.7 12,-1010.7 282.6,-1010.7 282.6,-1010.7 288.6,-1010.7 294.6,-1016.7 294.6,-1022.7 294.6,-1022.7 294.6,-1080.6 294.6,-1080.6 294.6,-1086.6 288.6,-1092.6 282.6,-1092.6"/>
<text xml:space="preserve" text-anchor="middle" x="147.3" y="-1074.95" font-family="Helvetica,sans-Serif" font-size="11.00">Wurzel&#45;Determinisierung (Fund 6)</text>
<text xml:space="preserve" text-anchor="middle" x="147.3" y="-1061.45" font-family="Helvetica,sans-Serif" font-size="11.00">DETERMINIZE_ROOT_HIDDEN_INFO: Kuppelstapel +</text>
<text xml:space="preserve" text-anchor="middle" x="147.3" y="-1047.95" font-family="Helvetica,sans-Serif" font-size="11.00">unaufgedeckte Bonuschips EINMAL pro Zugsuche</text>
<text xml:space="preserve" text-anchor="middle" x="147.3" y="-1034.45" font-family="Helvetica,sans-Serif" font-size="11.00">neu gemischt — Suche danach deterministisch</text>
<text xml:space="preserve" text-anchor="middle" x="147.3" y="-1020.95" font-family="Helvetica,sans-Serif" font-size="11.00">auf dieser einen Welt, kein In&#45;Tree&#45;Rauschen</text>
</g>
<!-- N2&#45;&gt;N3 -->
<g id="edge2" class="edge">
<title>N2&#45;&gt;N3</title>
<path fill="none" stroke="black" d="M147.3,-1129.26C147.3,-1120.96 147.3,-1112.41 147.3,-1104.16"/>
<polygon fill="black" stroke="black" points="150.8,-1104.28 147.3,-1094.28 143.8,-1104.28 150.8,-1104.28"/>
</g>
<!-- LEGACY -->
<g id="node12" class="node">
<title>LEGACY</title>
<path fill="#e8e8e8" stroke="black" stroke-dasharray="5,2" d="M562.35,-1407.4C562.35,-1407.4 302.25,-1407.4 302.25,-1407.4 296.25,-1407.4 290.25,-1401.4 290.25,-1395.4 290.25,-1395.4 290.25,-1297 290.25,-1297 290.25,-1291 296.25,-1285 302.25,-1285 302.25,-1285 562.35,-1285 562.35,-1285 568.35,-1285 574.35,-1291 574.35,-1297 574.35,-1297 574.35,-1395.4 574.35,-1395.4 574.35,-1401.4 568.35,-1407.4 562.35,-1407.4"/>
<text xml:space="preserve" text-anchor="middle" x="432.3" y="-1389.75" font-family="Helvetica,sans-Serif" font-size="11.00">Legacy PUCT&#45;Pfad (USE_GUMBEL_SEARCH=false)</text>
<text xml:space="preserve" text-anchor="middle" x="432.3" y="-1376.25" font-family="Helvetica,sans-Serif" font-size="11.00">95%&#45;Cutoff (POLICY_MASS_CUTOFF) + Dirichlet&#45;</text>
<text xml:space="preserve" text-anchor="middle" x="432.3" y="-1362.75" font-family="Helvetica,sans-Serif" font-size="11.00">Noise vor Cutoff an der Wurzel (Fund 4) + PUCT</text>
<text xml:space="preserve" text-anchor="middle" x="432.3" y="-1349.25" font-family="Helvetica,sans-Serif" font-size="11.00">(Q + c_puct·P·√N_eltern/(1+N_kind)) + Tie&#45;Break</text>
<text xml:space="preserve" text-anchor="middle" x="432.3" y="-1335.75" font-family="Helvetica,sans-Serif" font-size="11.00">(visits,Q,prior) statt schlechtestem Gleichstand.</text>
<text xml:space="preserve" text-anchor="middle" x="432.3" y="-1322.25" font-family="Helvetica,sans-Serif" font-size="11.00">dynamic_sims(base,n): mehr Optionen &#45;&gt; mehr Sims</text>
<text xml:space="preserve" text-anchor="middle" x="432.3" y="-1308.75" font-family="Helvetica,sans-Serif" font-size="11.00">— hier weiterhin aktiv (nur der Gumbel&#45;Pfad</text>
<text xml:space="preserve" text-anchor="middle" x="432.3" y="-1295.25" font-family="Helvetica,sans-Serif" font-size="11.00">ist entkoppelt, siehe N3B)</text>
</g>
<!-- N2&#45;&gt;LEGACY -->
<g id="edge12" class="edge">
<title>N2&#45;&gt;LEGACY</title>
<path fill="none" stroke="black" stroke-dasharray="1,5" d="M243.04,-1238.85C266.04,-1251.78 290.88,-1265.73 314.75,-1279.14"/>
<polygon fill="black" stroke="black" points="312.8,-1282.07 323.23,-1283.91 316.23,-1275.96 312.8,-1282.07"/>
<text xml:space="preserve" text-anchor="middle" x="355.05" y="-1258.45" font-family="Helvetica,sans-Serif" font-size="9.00">USE_GUMBEL_SEARCH=false</text>
</g>
<!-- N3B -->
<g id="node4" class="node">
<title>N3B</title>
<path fill="#d9f2d9" stroke="black" d="M276.98,-973.7C276.98,-973.7 17.62,-973.7 17.62,-973.7 11.62,-973.7 5.62,-967.7 5.62,-961.7 5.62,-961.7 5.62,-890.3 5.62,-890.3 5.62,-884.3 11.62,-878.3 17.62,-878.3 17.62,-878.3 276.98,-878.3 276.98,-878.3 282.98,-878.3 288.98,-884.3 288.98,-890.3 288.98,-890.3 288.98,-961.7 288.98,-961.7 288.98,-967.7 282.98,-973.7 276.98,-973.7"/>
<text xml:space="preserve" text-anchor="middle" x="147.3" y="-956.05" font-family="Helvetica,sans-Serif" font-size="11.00">Sims&#45;Budget: 400 (flach)</text>
<text xml:space="preserve" text-anchor="middle" x="147.3" y="-942.55" font-family="Helvetica,sans-Serif" font-size="11.00">net_effective_sims, DECOUPLE_NET_SIMS_FROM_</text>
<text xml:space="preserve" text-anchor="middle" x="147.3" y="-929.05" font-family="Helvetica,sans-Serif" font-size="11.00">ACTIONS=true (Standard): base_sims wird NICHT</text>
<text xml:space="preserve" text-anchor="middle" x="147.3" y="-915.55" font-family="Helvetica,sans-Serif" font-size="11.00">mehr mit der Aktionszahl skaliert (vorher</text>
<text xml:space="preserve" text-anchor="middle" x="147.3" y="-902.05" font-family="Helvetica,sans-Serif" font-size="11.00">dynamic_sims, Ø~330 bei Basis 150) — Gumbels</text>
<text xml:space="preserve" text-anchor="middle" x="147.3" y="-888.55" font-family="Helvetica,sans-Serif" font-size="11.00">Wurzelbreite ist ohnehin fix (GUMBEL_TOP_M)</text>
</g>
<!-- N3&#45;&gt;N3B -->
<g id="edge3" class="edge">
<title>N3&#45;&gt;N3B</title>
<path fill="none" stroke="black" d="M147.3,-1010.5C147.3,-1002.46 147.3,-993.85 147.3,-985.33"/>
<polygon fill="black" stroke="black" points="150.8,-985.34 147.3,-975.34 143.8,-985.34 150.8,-985.34"/>
</g>
<!-- N4 -->
<g id="node5" class="node">
<title>N4</title>
<path fill="#ffe5b4" stroke="black" d="M260.85,-841.3C260.85,-841.3 33.75,-841.3 33.75,-841.3 27.75,-841.3 21.75,-835.3 21.75,-829.3 21.75,-829.3 21.75,-771.4 21.75,-771.4 21.75,-765.4 27.75,-759.4 33.75,-759.4 33.75,-759.4 260.85,-759.4 260.85,-759.4 266.85,-759.4 272.85,-765.4 272.85,-771.4 272.85,-771.4 272.85,-829.3 272.85,-829.3 272.85,-835.3 266.85,-841.3 260.85,-841.3"/>
<text xml:space="preserve" text-anchor="middle" x="147.3" y="-823.65" font-family="Helvetica,sans-Serif" font-size="11.00">Wurzel: Gumbel&#45;Top&#45;m</text>
<text xml:space="preserve" text-anchor="middle" x="147.3" y="-810.15" font-family="Helvetica,sans-Serif" font-size="11.00">GUMBEL_TOP_M=16: g(a)+ln(prior(a)) ziehen,</text>
<text xml:space="preserve" text-anchor="middle" x="147.3" y="-796.65" font-family="Helvetica,sans-Serif" font-size="11.00">Top m behalten — ersetzt Dirichlet&#45;Noise</text>
<text xml:space="preserve" text-anchor="middle" x="147.3" y="-783.15" font-family="Helvetica,sans-Serif" font-size="11.00">+ 95%&#45;Cutoff an der Wurzel komplett</text>
<text xml:space="preserve" text-anchor="middle" x="147.3" y="-769.65" font-family="Helvetica,sans-Serif" font-size="11.00">(Explorationsgarantie statt Hoffnung)</text>
</g>
<!-- N3B&#45;&gt;N4 -->
<g id="edge4" class="edge">
<title>N3B&#45;&gt;N4</title>
<path fill="none" stroke="black" d="M147.3,-877.9C147.3,-869.74 147.3,-861.21 147.3,-852.93"/>
<polygon fill="black" stroke="black" points="150.8,-852.98 147.3,-842.98 143.8,-852.98 150.8,-852.98"/>
</g>
<!-- N5 -->
<g id="node6" class="node">
<title>N5</title>
<path fill="#ffe5b4" stroke="black" d="M246.98,-722.4C246.98,-722.4 47.62,-722.4 47.62,-722.4 41.62,-722.4 35.63,-716.4 35.63,-710.4 35.63,-710.4 35.63,-652.5 35.63,-652.5 35.63,-646.5 41.63,-640.5 47.63,-640.5 47.63,-640.5 246.98,-640.5 246.98,-640.5 252.98,-640.5 258.98,-646.5 258.98,-652.5 258.98,-652.5 258.98,-710.4 258.98,-710.4 258.98,-716.4 252.98,-722.4 246.98,-722.4"/>
<text xml:space="preserve" text-anchor="middle" x="147.3" y="-704.75" font-family="Helvetica,sans-Serif" font-size="11.00">Sequential Halving</text>
<text xml:space="preserve" text-anchor="middle" x="147.3" y="-691.25" font-family="Helvetica,sans-Serif" font-size="11.00">Budget in log2(m) Phasen aufgeteilt, jeder</text>
<text xml:space="preserve" text-anchor="middle" x="147.3" y="-677.75" font-family="Helvetica,sans-Serif" font-size="11.00">Überlebende bekommt gleich viele Sims,</text>
<text xml:space="preserve" text-anchor="middle" x="147.3" y="-664.25" font-family="Helvetica,sans-Serif" font-size="11.00">schlechtere Hälfte (nach g(a)+ln(prior)+</text>
<text xml:space="preserve" text-anchor="middle" x="147.3" y="-650.75" font-family="Helvetica,sans-Serif" font-size="11.00">σ(completed_Q)) fliegt raus</text>
</g>
<!-- N4&#45;&gt;N5 -->
<g id="edge5" class="edge">
<title>N4&#45;&gt;N5</title>
<path fill="none" stroke="black" d="M147.3,-759.12C147.3,-751.04 147.3,-742.44 147.3,-734.03"/>
<polygon fill="black" stroke="black" points="150.8,-734.27 147.3,-724.27 143.8,-734.27 150.8,-734.27"/>
</g>
<!-- N6 -->
<g id="node7" class="node">
<title>N6</title>
<path fill="#cfe2ff" stroke="black" d="M276.23,-603.5C276.23,-603.5 18.38,-603.5 18.38,-603.5 12.38,-603.5 6.38,-597.5 6.38,-591.5 6.38,-591.5 6.38,-520.1 6.38,-520.1 6.38,-514.1 12.38,-508.1 18.38,-508.1 18.38,-508.1 276.23,-508.1 276.23,-508.1 282.23,-508.1 288.23,-514.1 288.23,-520.1 288.23,-520.1 288.23,-591.5 288.23,-591.5 288.23,-597.5 282.23,-603.5 276.23,-603.5"/>
<text xml:space="preserve" text-anchor="middle" x="147.3" y="-585.85" font-family="Helvetica,sans-Serif" font-size="11.00">Tiefe ≥1: Baustein B + Widening</text>
<text xml:space="preserve" text-anchor="middle" x="147.3" y="-572.35" font-family="Helvetica,sans-Serif" font-size="11.00">Kuppelplatten&#45;Zug = zweistufiger Suchknoten</text>
<text xml:space="preserve" text-anchor="middle" x="147.3" y="-558.85" font-family="Helvetica,sans-Serif" font-size="11.00">(ChooseDomeSlot/ChooseDrawStackSlot → Choose&#45;</text>
<text xml:space="preserve" text-anchor="middle" x="147.3" y="-545.35" font-family="Helvetica,sans-Serif" font-size="11.00">DomeRotation). Progressive&#45;Widening&#45;Cap</text>
<text xml:space="preserve" text-anchor="middle" x="147.3" y="-531.85" font-family="Helvetica,sans-Serif" font-size="11.00">(MAX_ACTIONS+WIDEN_FACTOR·√N) bestimmt,</text>
<text xml:space="preserve" text-anchor="middle" x="147.3" y="-518.35" font-family="Helvetica,sans-Serif" font-size="11.00">welche Kandidaten überhaupt Kind werden</text>
</g>
<!-- N5&#45;&gt;N6 -->
<g id="edge6" class="edge">
<title>N5&#45;&gt;N6</title>
<path fill="none" stroke="black" d="M147.3,-640.3C147.3,-632.26 147.3,-623.65 147.3,-615.13"/>
<polygon fill="black" stroke="black" points="150.8,-615.14 147.3,-605.14 143.8,-615.14 150.8,-615.14"/>
</g>
<!-- N7 -->
<g id="node8" class="node">
<title>N7</title>
<path fill="#ffe5b4" stroke="black" d="M237.98,-471.1C237.98,-471.1 56.62,-471.1 56.62,-471.1 50.62,-471.1 44.63,-465.1 44.63,-459.1 44.63,-459.1 44.63,-401.2 44.63,-401.2 44.63,-395.2 50.63,-389.2 56.63,-389.2 56.63,-389.2 237.98,-389.2 237.98,-389.2 243.98,-389.2 249.98,-395.2 249.98,-401.2 249.98,-401.2 249.98,-459.1 249.98,-459.1 249.98,-465.1 243.98,-471.1 237.98,-471.1"/>
<text xml:space="preserve" text-anchor="middle" x="147.3" y="-453.45" font-family="Helvetica,sans-Serif" font-size="11.00">Tiefe ≥1: deterministische Auswahl</text>
<text xml:space="preserve" text-anchor="middle" x="147.3" y="-439.95" font-family="Helvetica,sans-Serif" font-size="11.00">argmax[π&#39;_node(a) − N(a)/(1+ΣN)],</text>
<text xml:space="preserve" text-anchor="middle" x="147.3" y="-426.45" font-family="Helvetica,sans-Serif" font-size="11.00">π&#39;_node = completed&#45;Q&#45;Softmax</text>
<text xml:space="preserve" text-anchor="middle" x="147.3" y="-412.95" font-family="Helvetica,sans-Serif" font-size="11.00">(improved_policy) — ersetzt best_puct</text>
<text xml:space="preserve" text-anchor="middle" x="147.3" y="-399.45" font-family="Helvetica,sans-Serif" font-size="11.00">im Gumbel&#45;Pfad</text>
</g>
<!-- N6&#45;&gt;N7 -->
<g id="edge7" class="edge">
<title>N6&#45;&gt;N7</title>
<path fill="none" stroke="black" d="M147.3,-507.7C147.3,-499.54 147.3,-491.01 147.3,-482.73"/>
<polygon fill="black" stroke="black" points="150.8,-482.78 147.3,-472.78 143.8,-482.78 150.8,-482.78"/>
</g>
<!-- N8 -->
<g id="node9" class="node">
<title>N8</title>
<path fill="#ffe5b4" stroke="black" d="M272.85,-342.7C272.85,-342.7 21.75,-342.7 21.75,-342.7 15.75,-342.7 9.75,-336.7 9.75,-330.7 9.75,-330.7 9.75,-245.8 9.75,-245.8 9.75,-239.8 15.75,-233.8 21.75,-233.8 21.75,-233.8 272.85,-233.8 272.85,-233.8 278.85,-233.8 284.85,-239.8 284.85,-245.8 284.85,-245.8 284.85,-330.7 284.85,-330.7 284.85,-336.7 278.85,-342.7 272.85,-342.7"/>
<text xml:space="preserve" text-anchor="middle" x="147.3" y="-325.05" font-family="Helvetica,sans-Serif" font-size="11.00">Expansion + Blattbewertung</text>
<text xml:space="preserve" text-anchor="middle" x="147.3" y="-311.55" font-family="Helvetica,sans-Serif" font-size="11.00">Neuer Knoten (zurück zu Netz&#45;Forward&#45;Pass)</text>
<text xml:space="preserve" text-anchor="middle" x="147.3" y="-298.05" font-family="Helvetica,sans-Serif" font-size="11.00">ACTIVE_LEAF=Net: value_to_win_prob</text>
<text xml:space="preserve" text-anchor="middle" x="147.3" y="-284.55" font-family="Helvetica,sans-Serif" font-size="11.00">(2 Forward&#45;Pässe, Ego&#45;Perspektive)</text>
<text xml:space="preserve" text-anchor="middle" x="147.3" y="-271.05" font-family="Helvetica,sans-Serif" font-size="11.00">+ Floor&#45;Shaping (FLOOR_SHAPING_WEIGHT=0.3,</text>
<text xml:space="preserve" text-anchor="middle" x="147.3" y="-257.55" font-family="Helvetica,sans-Serif" font-size="11.00">exakte Bodenstrafe additiv eingemischt)</text>
<text xml:space="preserve" text-anchor="middle" x="147.3" y="-244.05" font-family="Helvetica,sans-Serif" font-size="11.00">ACTIVE_LEAF=Dfs (dormant): exakter Tiling&#45;Solver</text>
</g>
<!-- N7&#45;&gt;N8 -->
<g id="edge8" class="edge">
<title>N7&#45;&gt;N8</title>
<path fill="none" stroke="black" d="M147.3,-389.06C147.3,-378.23 147.3,-366.22 147.3,-354.4"/>
<polygon fill="black" stroke="black" points="150.8,-354.68 147.3,-344.68 143.8,-354.68 150.8,-354.68"/>
</g>
<!-- N9 -->
<g id="node10" class="node">
<title>N9</title>
<path fill="#ffe5b4" stroke="black" d="M230.1,-196.8C230.1,-196.8 64.5,-196.8 64.5,-196.8 58.5,-196.8 52.5,-190.8 52.5,-184.8 52.5,-184.8 52.5,-153.9 52.5,-153.9 52.5,-147.9 58.5,-141.9 64.5,-141.9 64.5,-141.9 230.1,-141.9 230.1,-141.9 236.1,-141.9 242.1,-147.9 242.1,-153.9 242.1,-153.9 242.1,-184.8 242.1,-184.8 242.1,-190.8 236.1,-196.8 230.1,-196.8"/>
<text xml:space="preserve" text-anchor="middle" x="147.3" y="-179.15" font-family="Helvetica,sans-Serif" font-size="11.00">Backpropagation</text>
<text xml:space="preserve" text-anchor="middle" x="147.3" y="-165.65" font-family="Helvetica,sans-Serif" font-size="11.00">Wert + Besuchszähler N entlang</text>
<text xml:space="preserve" text-anchor="middle" x="147.3" y="-152.15" font-family="Helvetica,sans-Serif" font-size="11.00">des Pfads zur Wurzel zurückführen</text>
</g>
<!-- N8&#45;&gt;N9 -->
<g id="edge9" class="edge">
<title>N8&#45;&gt;N9</title>
<path fill="none" stroke="black" d="M147.3,-233.59C147.3,-225.12 147.3,-216.52 147.3,-208.5"/>
<polygon fill="black" stroke="black" points="150.8,-208.76 147.3,-198.76 143.8,-208.76 150.8,-208.76"/>
</g>
<!-- N9&#45;&gt;N6 -->
<g id="edge10" class="edge">
<title>N9&#45;&gt;N6</title>
<path fill="none" stroke="black" stroke-dasharray="5,2" d="M242.5,-192.56C262.91,-201.89 282.01,-215.1 294.3,-233.8 320.89,-274.24 300.72,-294.73 294.3,-342.7 286.45,-401.33 292.58,-422.2 259.3,-471.1 252.12,-481.65 243.16,-491.4 233.46,-500.24"/>
<polygon fill="black" stroke="black" points="231.18,-497.58 225.91,-506.77 235.76,-502.87 231.18,-497.58"/>
<text xml:space="preserve" text-anchor="middle" x="364.43" y="-362.65" font-family="Helvetica,sans-Serif" font-size="9.00">wiederholt bis Sims&#45;Budget erreicht</text>
</g>
<!-- N10 -->
<g id="node11" class="node">
<title>N10</title>
<path fill="#cfe2ff" stroke="black" d="M263.85,-95.4C263.85,-95.4 30.75,-95.4 30.75,-95.4 24.75,-95.4 18.75,-89.4 18.75,-83.4 18.75,-83.4 18.75,-12 18.75,-12 18.75,-6 24.75,0 30.75,0 30.75,0 263.85,0 263.85,0 269.85,0 275.85,-6 275.85,-12 275.85,-12 275.85,-83.4 275.85,-83.4 275.85,-89.4 269.85,-95.4 263.85,-95.4"/>
<text xml:space="preserve" text-anchor="middle" x="147.3" y="-77.75" font-family="Helvetica,sans-Serif" font-size="11.00">Zugwahl</text>
<text xml:space="preserve" text-anchor="middle" x="147.3" y="-64.25" font-family="Helvetica,sans-Serif" font-size="11.00">Sequential&#45;Halving&#45;Gewinner (Arena/Produktion)</text>
<text xml:space="preserve" text-anchor="middle" x="147.3" y="-50.75" font-family="Helvetica,sans-Serif" font-size="11.00">Self&#45;Play&#45;Policy&#45;Ziel: completed&#45;Q&#45;Softmax</text>
<text xml:space="preserve" text-anchor="middle" x="147.3" y="-37.25" font-family="Helvetica,sans-Serif" font-size="11.00">(net_root_child_stats_and_policy, ersetzt</text>
<text xml:space="preserve" text-anchor="middle" x="147.3" y="-23.75" font-family="Helvetica,sans-Serif" font-size="11.00">Besuchsanteil) — gespielte Aktion bleibt</text>
<text xml:space="preserve" text-anchor="middle" x="147.3" y="-10.25" font-family="Helvetica,sans-Serif" font-size="11.00">besuchsbasiert, nur das Trainingsziel ändert sich</text>
</g>
<!-- N9&#45;&gt;N10 -->
<g id="edge11" class="edge">
<title>N9&#45;&gt;N10</title>
<path fill="none" stroke="black" d="M147.3,-141.5C147.3,-131.26 147.3,-119.16 147.3,-107.13"/>
<polygon fill="black" stroke="black" points="150.8,-107.19 147.3,-97.19 143.8,-107.19 150.8,-107.19"/>
<text xml:space="preserve" text-anchor="middle" x="178.43" y="-115.35" font-family="Helvetica,sans-Serif" font-size="9.00">Budget erreicht</text>
</g>
</g>
</svg>
