<?xml version="1.0" encoding="UTF-8" standalone="no"?>
<!DOCTYPE svg PUBLIC "-//W3C//DTD SVG 1.1//EN"
 "http://www.w3.org/Graphics/SVG/1.1/DTD/svg11.dtd">
<!-- Generated by graphviz version 15.1.0 (20260618.0150)
 -->
<!-- Title: NetzSuche Pages: 1 -->
<svg width="582pt" height="1243pt"
 viewBox="0.00 0.00 582.00 1243.00" xmlns="http://www.w3.org/2000/svg" xmlns:xlink="http://www.w3.org/1999/xlink">
<g id="graph0" class="graph" transform="scale(1 1) rotate(0) translate(4 1238.5)">
<title>NetzSuche</title>
<polygon fill="white" stroke="none" points="-4,4 -4,-1238.5 578.35,-1238.5 578.35,4 -4,4"/>
<!-- N1 -->
<g id="node1" class="node">
<title>N1</title>
<path fill="#cfe2ff" stroke="black" d="M260.1,-1221C260.1,-1221 34.5,-1221 34.5,-1221 28.5,-1221 22.5,-1215 22.5,-1209 22.5,-1209 22.5,-1151.1 22.5,-1151.1 22.5,-1145.1 28.5,-1139.1 34.5,-1139.1 34.5,-1139.1 260.1,-1139.1 260.1,-1139.1 266.1,-1139.1 272.1,-1145.1 272.1,-1151.1 272.1,-1151.1 272.1,-1209 272.1,-1209 272.1,-1215 266.1,-1221 260.1,-1221"/>
<text xml:space="preserve" text-anchor="middle" x="147.3" y="-1203.35" font-family="Helvetica,sans-Serif" font-size="11.00">Netz&#45;Forward&#45;Pass</text>
<text xml:space="preserve" text-anchor="middle" x="147.3" y="-1189.85" font-family="Helvetica,sans-Serif" font-size="11.00">state[708] → policy_logits[406], value,</text>
<text xml:space="preserve" text-anchor="middle" x="147.3" y="-1176.35" font-family="Helvetica,sans-Serif" font-size="11.00">moon_scores[5], points_forecast</text>
<text xml:space="preserve" text-anchor="middle" x="147.3" y="-1162.85" font-family="Helvetica,sans-Serif" font-size="11.00">(4 Tensoren — dome_slot/dome_rotation&#45;Köpfe</text>
<text xml:space="preserve" text-anchor="middle" x="147.3" y="-1149.35" font-family="Helvetica,sans-Serif" font-size="11.00">entfernt, siehe Baustein B unten)</text>
</g>
<!-- N2 -->
<g id="node2" class="node">
<title>N2</title>
<path fill="#cfe2ff" stroke="black" d="M261.98,-1079.1C261.98,-1079.1 32.62,-1079.1 32.62,-1079.1 26.62,-1079.1 20.63,-1073.1 20.63,-1067.1 20.63,-1067.1 20.63,-982.2 20.63,-982.2 20.63,-976.2 26.63,-970.2 32.63,-970.2 32.63,-970.2 261.98,-970.2 261.98,-970.2 267.98,-970.2 273.98,-976.2 273.98,-982.2 273.98,-982.2 273.98,-1067.1 273.98,-1067.1 273.98,-1073.1 267.98,-1079.1 261.98,-1079.1"/>
<text xml:space="preserve" text-anchor="middle" x="147.3" y="-1061.45" font-family="Helvetica,sans-Serif" font-size="11.00">Prior&#45;Berechnung</text>
<text xml:space="preserve" text-anchor="middle" x="147.3" y="-1047.95" font-family="Helvetica,sans-Serif" font-size="11.00">Aktionen → action_to_id (nur noch Moon&#45;Order&#45;</text>
<text xml:space="preserve" text-anchor="middle" x="147.3" y="-1034.45" font-family="Helvetica,sans-Serif" font-size="11.00">Varianten teilen sich eine ID; Kuppelplatzierung</text>
<text xml:space="preserve" text-anchor="middle" x="147.3" y="-1020.95" font-family="Helvetica,sans-Serif" font-size="11.00">ist jetzt ein echter zweistufiger Suchknoten,</text>
<text xml:space="preserve" text-anchor="middle" x="147.3" y="-1007.45" font-family="Helvetica,sans-Serif" font-size="11.00">keine Dome&#45;Faktorisierung mehr nötig)</text>
<text xml:space="preserve" text-anchor="middle" x="147.3" y="-993.95" font-family="Helvetica,sans-Serif" font-size="11.00">→ maskierte Softmax über eindeutige legale IDs</text>
<text xml:space="preserve" text-anchor="middle" x="147.3" y="-980.45" font-family="Helvetica,sans-Serif" font-size="11.00">→ Basis&#45;Prior, Moon&#45;Order&#45;Faktorisierung drauf</text>
</g>
<!-- N1&#45;&gt;N2 -->
<g id="edge1" class="edge">
<title>N1&#45;&gt;N2</title>
<path fill="none" stroke="black" d="M147.3,-1138.75C147.3,-1124.03 147.3,-1106.99 147.3,-1090.68"/>
<polygon fill="black" stroke="black" points="150.8,-1091.04 147.3,-1081.04 143.8,-1091.04 150.8,-1091.04"/>
</g>
<!-- N3 -->
<g id="node3" class="node">
<title>N3</title>
<path fill="#d9f2d9" stroke="black" d="M282.6,-933.2C282.6,-933.2 12,-933.2 12,-933.2 6,-933.2 0,-927.2 0,-921.2 0,-921.2 0,-863.3 0,-863.3 0,-857.3 6,-851.3 12,-851.3 12,-851.3 282.6,-851.3 282.6,-851.3 288.6,-851.3 294.6,-857.3 294.6,-863.3 294.6,-863.3 294.6,-921.2 294.6,-921.2 294.6,-927.2 288.6,-933.2 282.6,-933.2"/>
<text xml:space="preserve" text-anchor="middle" x="147.3" y="-915.55" font-family="Helvetica,sans-Serif" font-size="11.00">Wurzel&#45;Determinisierung (Fund 6)</text>
<text xml:space="preserve" text-anchor="middle" x="147.3" y="-902.05" font-family="Helvetica,sans-Serif" font-size="11.00">DETERMINIZE_ROOT_HIDDEN_INFO: Kuppelstapel +</text>
<text xml:space="preserve" text-anchor="middle" x="147.3" y="-888.55" font-family="Helvetica,sans-Serif" font-size="11.00">unaufgedeckte Bonuschips EINMAL pro Zugsuche</text>
<text xml:space="preserve" text-anchor="middle" x="147.3" y="-875.05" font-family="Helvetica,sans-Serif" font-size="11.00">neu gemischt — Suche danach deterministisch</text>
<text xml:space="preserve" text-anchor="middle" x="147.3" y="-861.55" font-family="Helvetica,sans-Serif" font-size="11.00">auf dieser einen Welt, kein In&#45;Tree&#45;Rauschen</text>
</g>
<!-- N2&#45;&gt;N3 -->
<g id="edge2" class="edge">
<title>N2&#45;&gt;N3</title>
<path fill="none" stroke="black" d="M147.3,-969.86C147.3,-961.56 147.3,-953.01 147.3,-944.76"/>
<polygon fill="black" stroke="black" points="150.8,-944.88 147.3,-934.88 143.8,-944.88 150.8,-944.88"/>
</g>
<!-- LEGACY -->
<g id="node11" class="node">
<title>LEGACY</title>
<path fill="#e8e8e8" stroke="black" stroke-dasharray="5,2" d="M562.35,-1234.5C562.35,-1234.5 302.25,-1234.5 302.25,-1234.5 296.25,-1234.5 290.25,-1228.5 290.25,-1222.5 290.25,-1222.5 290.25,-1137.6 290.25,-1137.6 290.25,-1131.6 296.25,-1125.6 302.25,-1125.6 302.25,-1125.6 562.35,-1125.6 562.35,-1125.6 568.35,-1125.6 574.35,-1131.6 574.35,-1137.6 574.35,-1137.6 574.35,-1222.5 574.35,-1222.5 574.35,-1228.5 568.35,-1234.5 562.35,-1234.5"/>
<text xml:space="preserve" text-anchor="middle" x="432.3" y="-1216.85" font-family="Helvetica,sans-Serif" font-size="11.00">Legacy PUCT&#45;Pfad (USE_GUMBEL_SEARCH=false)</text>
<text xml:space="preserve" text-anchor="middle" x="432.3" y="-1203.35" font-family="Helvetica,sans-Serif" font-size="11.00">95%&#45;Cutoff (POLICY_MASS_CUTOFF) + Dirichlet&#45;</text>
<text xml:space="preserve" text-anchor="middle" x="432.3" y="-1189.85" font-family="Helvetica,sans-Serif" font-size="11.00">Noise vor Cutoff an der Wurzel (Fund 4) + PUCT</text>
<text xml:space="preserve" text-anchor="middle" x="432.3" y="-1176.35" font-family="Helvetica,sans-Serif" font-size="11.00">(Q + c_puct·P·√N_eltern/(1+N_kind)) + Tie&#45;Break</text>
<text xml:space="preserve" text-anchor="middle" x="432.3" y="-1162.85" font-family="Helvetica,sans-Serif" font-size="11.00">(visits,Q,prior) statt schlechtestem Gleichstand.</text>
<text xml:space="preserve" text-anchor="middle" x="432.3" y="-1149.35" font-family="Helvetica,sans-Serif" font-size="11.00">dynamic_sims(base,n): mehr Optionen &#45;&gt; mehr Sims</text>
<text xml:space="preserve" text-anchor="middle" x="432.3" y="-1135.85" font-family="Helvetica,sans-Serif" font-size="11.00">— weiterhin im Code, nicht mehr Standard</text>
</g>
<!-- N2&#45;&gt;LEGACY -->
<g id="edge11" class="edge">
<title>N2&#45;&gt;LEGACY</title>
<path fill="none" stroke="black" stroke-dasharray="1,5" d="M247.14,-1079.39C271.37,-1092.43 297.42,-1106.45 322.1,-1119.74"/>
<polygon fill="black" stroke="black" points="320.42,-1122.81 330.89,-1124.47 323.74,-1116.64 320.42,-1122.81"/>
<text xml:space="preserve" text-anchor="middle" x="363.6" y="-1099.05" font-family="Helvetica,sans-Serif" font-size="9.00">USE_GUMBEL_SEARCH=false</text>
</g>
<!-- N4 -->
<g id="node4" class="node">
<title>N4</title>
<path fill="#ffe5b4" stroke="black" d="M260.85,-814.3C260.85,-814.3 33.75,-814.3 33.75,-814.3 27.75,-814.3 21.75,-808.3 21.75,-802.3 21.75,-802.3 21.75,-744.4 21.75,-744.4 21.75,-738.4 27.75,-732.4 33.75,-732.4 33.75,-732.4 260.85,-732.4 260.85,-732.4 266.85,-732.4 272.85,-738.4 272.85,-744.4 272.85,-744.4 272.85,-802.3 272.85,-802.3 272.85,-808.3 266.85,-814.3 260.85,-814.3"/>
<text xml:space="preserve" text-anchor="middle" x="147.3" y="-796.65" font-family="Helvetica,sans-Serif" font-size="11.00">Wurzel: Gumbel&#45;Top&#45;m</text>
<text xml:space="preserve" text-anchor="middle" x="147.3" y="-783.15" font-family="Helvetica,sans-Serif" font-size="11.00">GUMBEL_TOP_M=16: g(a)+ln(prior(a)) ziehen,</text>
<text xml:space="preserve" text-anchor="middle" x="147.3" y="-769.65" font-family="Helvetica,sans-Serif" font-size="11.00">Top m behalten — ersetzt Dirichlet&#45;Noise</text>
<text xml:space="preserve" text-anchor="middle" x="147.3" y="-756.15" font-family="Helvetica,sans-Serif" font-size="11.00">+ 95%&#45;Cutoff an der Wurzel komplett</text>
<text xml:space="preserve" text-anchor="middle" x="147.3" y="-742.65" font-family="Helvetica,sans-Serif" font-size="11.00">(Explorationsgarantie statt Hoffnung)</text>
</g>
<!-- N3&#45;&gt;N4 -->
<g id="edge3" class="edge">
<title>N3&#45;&gt;N4</title>
<path fill="none" stroke="black" d="M147.3,-851.02C147.3,-842.94 147.3,-834.34 147.3,-825.93"/>
<polygon fill="black" stroke="black" points="150.8,-826.17 147.3,-816.17 143.8,-826.17 150.8,-826.17"/>
</g>
<!-- N5 -->
<g id="node5" class="node">
<title>N5</title>
<path fill="#ffe5b4" stroke="black" d="M246.98,-695.4C246.98,-695.4 47.62,-695.4 47.62,-695.4 41.62,-695.4 35.63,-689.4 35.63,-683.4 35.63,-683.4 35.63,-625.5 35.63,-625.5 35.63,-619.5 41.63,-613.5 47.63,-613.5 47.63,-613.5 246.98,-613.5 246.98,-613.5 252.98,-613.5 258.98,-619.5 258.98,-625.5 258.98,-625.5 258.98,-683.4 258.98,-683.4 258.98,-689.4 252.98,-695.4 246.98,-695.4"/>
<text xml:space="preserve" text-anchor="middle" x="147.3" y="-677.75" font-family="Helvetica,sans-Serif" font-size="11.00">Sequential Halving</text>
<text xml:space="preserve" text-anchor="middle" x="147.3" y="-664.25" font-family="Helvetica,sans-Serif" font-size="11.00">Budget in log2(m) Phasen aufgeteilt, jeder</text>
<text xml:space="preserve" text-anchor="middle" x="147.3" y="-650.75" font-family="Helvetica,sans-Serif" font-size="11.00">Überlebende bekommt gleich viele Sims,</text>
<text xml:space="preserve" text-anchor="middle" x="147.3" y="-637.25" font-family="Helvetica,sans-Serif" font-size="11.00">schlechtere Hälfte (nach g(a)+ln(prior)+</text>
<text xml:space="preserve" text-anchor="middle" x="147.3" y="-623.75" font-family="Helvetica,sans-Serif" font-size="11.00">σ(completed_Q)) fliegt raus</text>
</g>
<!-- N4&#45;&gt;N5 -->
<g id="edge4" class="edge">
<title>N4&#45;&gt;N5</title>
<path fill="none" stroke="black" d="M147.3,-732.12C147.3,-724.04 147.3,-715.44 147.3,-707.03"/>
<polygon fill="black" stroke="black" points="150.8,-707.27 147.3,-697.27 143.8,-707.27 150.8,-707.27"/>
</g>
<!-- N6 -->
<g id="node6" class="node">
<title>N6</title>
<path fill="#cfe2ff" stroke="black" d="M276.23,-576.5C276.23,-576.5 18.38,-576.5 18.38,-576.5 12.38,-576.5 6.38,-570.5 6.38,-564.5 6.38,-564.5 6.38,-493.1 6.38,-493.1 6.38,-487.1 12.38,-481.1 18.38,-481.1 18.38,-481.1 276.23,-481.1 276.23,-481.1 282.23,-481.1 288.23,-487.1 288.23,-493.1 288.23,-493.1 288.23,-564.5 288.23,-564.5 288.23,-570.5 282.23,-576.5 276.23,-576.5"/>
<text xml:space="preserve" text-anchor="middle" x="147.3" y="-558.85" font-family="Helvetica,sans-Serif" font-size="11.00">Tiefe ≥1: Baustein B + Widening</text>
<text xml:space="preserve" text-anchor="middle" x="147.3" y="-545.35" font-family="Helvetica,sans-Serif" font-size="11.00">Kuppelplatten&#45;Zug = zweistufiger Suchknoten</text>
<text xml:space="preserve" text-anchor="middle" x="147.3" y="-531.85" font-family="Helvetica,sans-Serif" font-size="11.00">(ChooseDomeSlot/ChooseDrawStackSlot → Choose&#45;</text>
<text xml:space="preserve" text-anchor="middle" x="147.3" y="-518.35" font-family="Helvetica,sans-Serif" font-size="11.00">DomeRotation). Progressive&#45;Widening&#45;Cap</text>
<text xml:space="preserve" text-anchor="middle" x="147.3" y="-504.85" font-family="Helvetica,sans-Serif" font-size="11.00">(MAX_ACTIONS+WIDEN_FACTOR·√N) bestimmt,</text>
<text xml:space="preserve" text-anchor="middle" x="147.3" y="-491.35" font-family="Helvetica,sans-Serif" font-size="11.00">welche Kandidaten überhaupt Kind werden</text>
</g>
<!-- N5&#45;&gt;N6 -->
<g id="edge5" class="edge">
<title>N5&#45;&gt;N6</title>
<path fill="none" stroke="black" d="M147.3,-613.3C147.3,-605.26 147.3,-596.65 147.3,-588.13"/>
<polygon fill="black" stroke="black" points="150.8,-588.14 147.3,-578.14 143.8,-588.14 150.8,-588.14"/>
</g>
<!-- N7 -->
<g id="node7" class="node">
<title>N7</title>
<path fill="#ffe5b4" stroke="black" d="M237.98,-444.1C237.98,-444.1 56.62,-444.1 56.62,-444.1 50.62,-444.1 44.63,-438.1 44.63,-432.1 44.63,-432.1 44.63,-374.2 44.63,-374.2 44.63,-368.2 50.63,-362.2 56.63,-362.2 56.63,-362.2 237.98,-362.2 237.98,-362.2 243.98,-362.2 249.98,-368.2 249.98,-374.2 249.98,-374.2 249.98,-432.1 249.98,-432.1 249.98,-438.1 243.98,-444.1 237.98,-444.1"/>
<text xml:space="preserve" text-anchor="middle" x="147.3" y="-426.45" font-family="Helvetica,sans-Serif" font-size="11.00">Tiefe ≥1: deterministische Auswahl</text>
<text xml:space="preserve" text-anchor="middle" x="147.3" y="-412.95" font-family="Helvetica,sans-Serif" font-size="11.00">argmax[π&#39;_node(a) − N(a)/(1+ΣN)],</text>
<text xml:space="preserve" text-anchor="middle" x="147.3" y="-399.45" font-family="Helvetica,sans-Serif" font-size="11.00">π&#39;_node = completed&#45;Q&#45;Softmax</text>
<text xml:space="preserve" text-anchor="middle" x="147.3" y="-385.95" font-family="Helvetica,sans-Serif" font-size="11.00">(improved_policy) — ersetzt best_puct</text>
<text xml:space="preserve" text-anchor="middle" x="147.3" y="-372.45" font-family="Helvetica,sans-Serif" font-size="11.00">im Gumbel&#45;Pfad</text>
</g>
<!-- N6&#45;&gt;N7 -->
<g id="edge6" class="edge">
<title>N6&#45;&gt;N7</title>
<path fill="none" stroke="black" d="M147.3,-480.7C147.3,-472.54 147.3,-464.01 147.3,-455.73"/>
<polygon fill="black" stroke="black" points="150.8,-455.78 147.3,-445.78 143.8,-455.78 150.8,-455.78"/>
</g>
<!-- N8 -->
<g id="node8" class="node">
<title>N8</title>
<path fill="#ffe5b4" stroke="black" d="M272.85,-315.7C272.85,-315.7 21.75,-315.7 21.75,-315.7 15.75,-315.7 9.75,-309.7 9.75,-303.7 9.75,-303.7 9.75,-218.8 9.75,-218.8 9.75,-212.8 15.75,-206.8 21.75,-206.8 21.75,-206.8 272.85,-206.8 272.85,-206.8 278.85,-206.8 284.85,-212.8 284.85,-218.8 284.85,-218.8 284.85,-303.7 284.85,-303.7 284.85,-309.7 278.85,-315.7 272.85,-315.7"/>
<text xml:space="preserve" text-anchor="middle" x="147.3" y="-298.05" font-family="Helvetica,sans-Serif" font-size="11.00">Expansion + Blattbewertung</text>
<text xml:space="preserve" text-anchor="middle" x="147.3" y="-284.55" font-family="Helvetica,sans-Serif" font-size="11.00">Neuer Knoten (zurück zu Netz&#45;Forward&#45;Pass)</text>
<text xml:space="preserve" text-anchor="middle" x="147.3" y="-271.05" font-family="Helvetica,sans-Serif" font-size="11.00">ACTIVE_LEAF=Net: value_to_win_prob</text>
<text xml:space="preserve" text-anchor="middle" x="147.3" y="-257.55" font-family="Helvetica,sans-Serif" font-size="11.00">(2 Forward&#45;Pässe, Ego&#45;Perspektive)</text>
<text xml:space="preserve" text-anchor="middle" x="147.3" y="-244.05" font-family="Helvetica,sans-Serif" font-size="11.00">+ Floor&#45;Shaping (FLOOR_SHAPING_WEIGHT=0.3,</text>
<text xml:space="preserve" text-anchor="middle" x="147.3" y="-230.55" font-family="Helvetica,sans-Serif" font-size="11.00">exakte Bodenstrafe additiv eingemischt)</text>
<text xml:space="preserve" text-anchor="middle" x="147.3" y="-217.05" font-family="Helvetica,sans-Serif" font-size="11.00">ACTIVE_LEAF=Dfs (dormant): exakter Tiling&#45;Solver</text>
</g>
<!-- N7&#45;&gt;N8 -->
<g id="edge7" class="edge">
<title>N7&#45;&gt;N8</title>
<path fill="none" stroke="black" d="M147.3,-362.06C147.3,-351.23 147.3,-339.22 147.3,-327.4"/>
<polygon fill="black" stroke="black" points="150.8,-327.68 147.3,-317.68 143.8,-327.68 150.8,-327.68"/>
</g>
<!-- N9 -->
<g id="node9" class="node">
<title>N9</title>
<path fill="#ffe5b4" stroke="black" d="M230.1,-169.8C230.1,-169.8 64.5,-169.8 64.5,-169.8 58.5,-169.8 52.5,-163.8 52.5,-157.8 52.5,-157.8 52.5,-126.9 52.5,-126.9 52.5,-120.9 58.5,-114.9 64.5,-114.9 64.5,-114.9 230.1,-114.9 230.1,-114.9 236.1,-114.9 242.1,-120.9 242.1,-126.9 242.1,-126.9 242.1,-157.8 242.1,-157.8 242.1,-163.8 236.1,-169.8 230.1,-169.8"/>
<text xml:space="preserve" text-anchor="middle" x="147.3" y="-152.15" font-family="Helvetica,sans-Serif" font-size="11.00">Backpropagation</text>
<text xml:space="preserve" text-anchor="middle" x="147.3" y="-138.65" font-family="Helvetica,sans-Serif" font-size="11.00">Wert + Besuchszähler N entlang</text>
<text xml:space="preserve" text-anchor="middle" x="147.3" y="-125.15" font-family="Helvetica,sans-Serif" font-size="11.00">des Pfads zur Wurzel zurückführen</text>
</g>
<!-- N8&#45;&gt;N9 -->
<g id="edge8" class="edge">
<title>N8&#45;&gt;N9</title>
<path fill="none" stroke="black" d="M147.3,-206.59C147.3,-198.12 147.3,-189.52 147.3,-181.5"/>
<polygon fill="black" stroke="black" points="150.8,-181.76 147.3,-171.76 143.8,-181.76 150.8,-181.76"/>
</g>
<!-- N9&#45;&gt;N6 -->
<g id="edge9" class="edge">
<title>N9&#45;&gt;N6</title>
<path fill="none" stroke="black" stroke-dasharray="5,2" d="M242.5,-165.56C262.91,-174.89 282.01,-188.1 294.3,-206.8 320.89,-247.24 300.72,-267.73 294.3,-315.7 286.45,-374.33 292.58,-395.2 259.3,-444.1 252.12,-454.65 243.16,-464.4 233.46,-473.24"/>
<polygon fill="black" stroke="black" points="231.18,-470.58 225.91,-479.77 235.76,-475.87 231.18,-470.58"/>
<text xml:space="preserve" text-anchor="middle" x="364.43" y="-335.65" font-family="Helvetica,sans-Serif" font-size="9.00">wiederholt bis Sims&#45;Budget erreicht</text>
</g>
<!-- N10 -->
<g id="node10" class="node">
<title>N10</title>
<path fill="#cfe2ff" stroke="black" d="M265.35,-68.4C265.35,-68.4 29.25,-68.4 29.25,-68.4 23.25,-68.4 17.25,-62.4 17.25,-56.4 17.25,-56.4 17.25,-12 17.25,-12 17.25,-6 23.25,0 29.25,0 29.25,0 265.35,0 265.35,0 271.35,0 277.35,-6 277.35,-12 277.35,-12 277.35,-56.4 277.35,-56.4 277.35,-62.4 271.35,-68.4 265.35,-68.4"/>
<text xml:space="preserve" text-anchor="middle" x="147.3" y="-50.75" font-family="Helvetica,sans-Serif" font-size="11.00">Zugwahl</text>
<text xml:space="preserve" text-anchor="middle" x="147.3" y="-37.25" font-family="Helvetica,sans-Serif" font-size="11.00">Sequential&#45;Halving&#45;Gewinner (Arena/Produktion)</text>
<text xml:space="preserve" text-anchor="middle" x="147.3" y="-23.75" font-family="Helvetica,sans-Serif" font-size="11.00">Self&#45;Play&#45;Policy&#45;Ziel: weiterhin Besuchsanteil</text>
<text xml:space="preserve" text-anchor="middle" x="147.3" y="-10.25" font-family="Helvetica,sans-Serif" font-size="11.00">(completed&#45;Q&#45;Ziel noch offen, siehe STATUS.md)</text>
</g>
<!-- N9&#45;&gt;N10 -->
<g id="edge10" class="edge">
<title>N9&#45;&gt;N10</title>
<path fill="none" stroke="black" d="M147.3,-114.56C147.3,-104.15 147.3,-91.94 147.3,-80.25"/>
<polygon fill="black" stroke="black" points="150.8,-80.35 147.3,-70.35 143.8,-80.35 150.8,-80.35"/>
<text xml:space="preserve" text-anchor="middle" x="178.43" y="-88.35" font-family="Helvetica,sans-Serif" font-size="9.00">Budget erreicht</text>
</g>
</g>
</svg>
