<?xml version="1.0" encoding="UTF-8" standalone="no"?>
<!DOCTYPE svg PUBLIC "-//W3C//DTD SVG 1.1//EN"
 "http://www.w3.org/Graphics/SVG/1.1/DTD/svg11.dtd">
<!-- Generated by graphviz version 15.1.0 (20260618.0150)
 -->
<!-- Title: NetzSuche Pages: 1 -->
<svg width="582pt" height="1550pt"
 viewBox="0.00 0.00 582.00 1550.00" xmlns="http://www.w3.org/2000/svg" xmlns:xlink="http://www.w3.org/1999/xlink">
<g id="graph0" class="graph" transform="scale(1 1) rotate(0) translate(4 1546.4)">
<title>NetzSuche</title>
<polygon fill="white" stroke="none" points="-4,4 -4,-1546.4 578.35,-1546.4 578.35,4 -4,4"/>
<!-- N1 -->
<g id="node1" class="node">
<title>N1</title>
<path fill="#cfe2ff" stroke="black" d="M260.1,-1522.15C260.1,-1522.15 34.5,-1522.15 34.5,-1522.15 28.5,-1522.15 22.5,-1516.15 22.5,-1510.15 22.5,-1510.15 22.5,-1452.25 22.5,-1452.25 22.5,-1446.25 28.5,-1440.25 34.5,-1440.25 34.5,-1440.25 260.1,-1440.25 260.1,-1440.25 266.1,-1440.25 272.1,-1446.25 272.1,-1452.25 272.1,-1452.25 272.1,-1510.15 272.1,-1510.15 272.1,-1516.15 266.1,-1522.15 260.1,-1522.15"/>
<text xml:space="preserve" text-anchor="middle" x="147.3" y="-1504.5" font-family="Helvetica,sans-Serif" font-size="11.00">Netz&#45;Forward&#45;Pass</text>
<text xml:space="preserve" text-anchor="middle" x="147.3" y="-1491" font-family="Helvetica,sans-Serif" font-size="11.00">state[708] → policy_logits[406], value,</text>
<text xml:space="preserve" text-anchor="middle" x="147.3" y="-1477.5" font-family="Helvetica,sans-Serif" font-size="11.00">moon_scores[5], points_forecast</text>
<text xml:space="preserve" text-anchor="middle" x="147.3" y="-1464" font-family="Helvetica,sans-Serif" font-size="11.00">(4 Tensoren — dome_slot/dome_rotation&#45;Köpfe</text>
<text xml:space="preserve" text-anchor="middle" x="147.3" y="-1450.5" font-family="Helvetica,sans-Serif" font-size="11.00">entfernt, siehe Baustein B unten)</text>
</g>
<!-- N2 -->
<g id="node2" class="node">
<title>N2</title>
<path fill="#cfe2ff" stroke="black" d="M261.98,-1373.5C261.98,-1373.5 32.62,-1373.5 32.62,-1373.5 26.62,-1373.5 20.63,-1367.5 20.63,-1361.5 20.63,-1361.5 20.63,-1276.6 20.63,-1276.6 20.63,-1270.6 26.63,-1264.6 32.63,-1264.6 32.63,-1264.6 261.98,-1264.6 261.98,-1264.6 267.98,-1264.6 273.98,-1270.6 273.98,-1276.6 273.98,-1276.6 273.98,-1361.5 273.98,-1361.5 273.98,-1367.5 267.98,-1373.5 261.98,-1373.5"/>
<text xml:space="preserve" text-anchor="middle" x="147.3" y="-1355.85" font-family="Helvetica,sans-Serif" font-size="11.00">Prior&#45;Berechnung</text>
<text xml:space="preserve" text-anchor="middle" x="147.3" y="-1342.35" font-family="Helvetica,sans-Serif" font-size="11.00">Aktionen → action_to_id (nur noch Moon&#45;Order&#45;</text>
<text xml:space="preserve" text-anchor="middle" x="147.3" y="-1328.85" font-family="Helvetica,sans-Serif" font-size="11.00">Varianten teilen sich eine ID; Kuppelplatzierung</text>
<text xml:space="preserve" text-anchor="middle" x="147.3" y="-1315.35" font-family="Helvetica,sans-Serif" font-size="11.00">ist jetzt ein echter zweistufiger Suchknoten,</text>
<text xml:space="preserve" text-anchor="middle" x="147.3" y="-1301.85" font-family="Helvetica,sans-Serif" font-size="11.00">keine Dome&#45;Faktorisierung mehr nötig)</text>
<text xml:space="preserve" text-anchor="middle" x="147.3" y="-1288.35" font-family="Helvetica,sans-Serif" font-size="11.00">→ maskierte Softmax über eindeutige legale IDs</text>
<text xml:space="preserve" text-anchor="middle" x="147.3" y="-1274.85" font-family="Helvetica,sans-Serif" font-size="11.00">→ Basis&#45;Prior, Moon&#45;Order&#45;Faktorisierung drauf</text>
</g>
<!-- N1&#45;&gt;N2 -->
<g id="edge1" class="edge">
<title>N1&#45;&gt;N2</title>
<path fill="none" stroke="black" d="M147.3,-1439.79C147.3,-1423.21 147.3,-1403.6 147.3,-1385.11"/>
<polygon fill="black" stroke="black" points="150.8,-1385.28 147.3,-1375.28 143.8,-1385.28 150.8,-1385.28"/>
</g>
<!-- N3 -->
<g id="node3" class="node">
<title>N3</title>
<path fill="#d9f2d9" stroke="black" d="M282.6,-1227.6C282.6,-1227.6 12,-1227.6 12,-1227.6 6,-1227.6 0,-1221.6 0,-1215.6 0,-1215.6 0,-1157.7 0,-1157.7 0,-1151.7 6,-1145.7 12,-1145.7 12,-1145.7 282.6,-1145.7 282.6,-1145.7 288.6,-1145.7 294.6,-1151.7 294.6,-1157.7 294.6,-1157.7 294.6,-1215.6 294.6,-1215.6 294.6,-1221.6 288.6,-1227.6 282.6,-1227.6"/>
<text xml:space="preserve" text-anchor="middle" x="147.3" y="-1209.95" font-family="Helvetica,sans-Serif" font-size="11.00">Wurzel&#45;Determinisierung (Fund 6)</text>
<text xml:space="preserve" text-anchor="middle" x="147.3" y="-1196.45" font-family="Helvetica,sans-Serif" font-size="11.00">DETERMINIZE_ROOT_HIDDEN_INFO: Kuppelstapel +</text>
<text xml:space="preserve" text-anchor="middle" x="147.3" y="-1182.95" font-family="Helvetica,sans-Serif" font-size="11.00">unaufgedeckte Bonuschips EINMAL pro Zugsuche</text>
<text xml:space="preserve" text-anchor="middle" x="147.3" y="-1169.45" font-family="Helvetica,sans-Serif" font-size="11.00">neu gemischt — Suche danach deterministisch</text>
<text xml:space="preserve" text-anchor="middle" x="147.3" y="-1155.95" font-family="Helvetica,sans-Serif" font-size="11.00">auf dieser einen Welt, kein In&#45;Tree&#45;Rauschen</text>
</g>
<!-- N2&#45;&gt;N3 -->
<g id="edge2" class="edge">
<title>N2&#45;&gt;N3</title>
<path fill="none" stroke="black" d="M147.3,-1264.26C147.3,-1255.96 147.3,-1247.41 147.3,-1239.16"/>
<polygon fill="black" stroke="black" points="150.8,-1239.28 147.3,-1229.28 143.8,-1239.28 150.8,-1239.28"/>
</g>
<!-- LEGACY -->
<g id="node12" class="node">
<title>LEGACY</title>
<path fill="#e8e8e8" stroke="black" stroke-dasharray="5,2" d="M562.35,-1542.4C562.35,-1542.4 302.25,-1542.4 302.25,-1542.4 296.25,-1542.4 290.25,-1536.4 290.25,-1530.4 290.25,-1530.4 290.25,-1432 290.25,-1432 290.25,-1426 296.25,-1420 302.25,-1420 302.25,-1420 562.35,-1420 562.35,-1420 568.35,-1420 574.35,-1426 574.35,-1432 574.35,-1432 574.35,-1530.4 574.35,-1530.4 574.35,-1536.4 568.35,-1542.4 562.35,-1542.4"/>
<text xml:space="preserve" text-anchor="middle" x="432.3" y="-1524.75" font-family="Helvetica,sans-Serif" font-size="11.00">Legacy PUCT&#45;Pfad (USE_GUMBEL_SEARCH=false)</text>
<text xml:space="preserve" text-anchor="middle" x="432.3" y="-1511.25" font-family="Helvetica,sans-Serif" font-size="11.00">95%&#45;Cutoff (POLICY_MASS_CUTOFF) + Dirichlet&#45;</text>
<text xml:space="preserve" text-anchor="middle" x="432.3" y="-1497.75" font-family="Helvetica,sans-Serif" font-size="11.00">Noise vor Cutoff an der Wurzel (Fund 4) + PUCT</text>
<text xml:space="preserve" text-anchor="middle" x="432.3" y="-1484.25" font-family="Helvetica,sans-Serif" font-size="11.00">(Q + c_puct·P·√N_eltern/(1+N_kind)) + Tie&#45;Break</text>
<text xml:space="preserve" text-anchor="middle" x="432.3" y="-1470.75" font-family="Helvetica,sans-Serif" font-size="11.00">(visits,Q,prior) statt schlechtestem Gleichstand.</text>
<text xml:space="preserve" text-anchor="middle" x="432.3" y="-1457.25" font-family="Helvetica,sans-Serif" font-size="11.00">dynamic_sims(base,n): mehr Optionen &#45;&gt; mehr Sims</text>
<text xml:space="preserve" text-anchor="middle" x="432.3" y="-1443.75" font-family="Helvetica,sans-Serif" font-size="11.00">— hier weiterhin aktiv (nur der Gumbel&#45;Pfad</text>
<text xml:space="preserve" text-anchor="middle" x="432.3" y="-1430.25" font-family="Helvetica,sans-Serif" font-size="11.00">ist entkoppelt, siehe N3B)</text>
</g>
<!-- N2&#45;&gt;LEGACY -->
<g id="edge12" class="edge">
<title>N2&#45;&gt;LEGACY</title>
<path fill="none" stroke="black" stroke-dasharray="1,5" d="M243.04,-1373.85C266.04,-1386.78 290.88,-1400.73 314.75,-1414.14"/>
<polygon fill="black" stroke="black" points="312.8,-1417.07 323.23,-1418.91 316.23,-1410.96 312.8,-1417.07"/>
<text xml:space="preserve" text-anchor="middle" x="355.05" y="-1393.45" font-family="Helvetica,sans-Serif" font-size="9.00">USE_GUMBEL_SEARCH=false</text>
</g>
<!-- N3B -->
<g id="node4" class="node">
<title>N3B</title>
<path fill="#d9f2d9" stroke="black" d="M276.98,-1108.7C276.98,-1108.7 17.62,-1108.7 17.62,-1108.7 11.62,-1108.7 5.62,-1102.7 5.62,-1096.7 5.62,-1096.7 5.62,-1025.3 5.62,-1025.3 5.62,-1019.3 11.62,-1013.3 17.62,-1013.3 17.62,-1013.3 276.98,-1013.3 276.98,-1013.3 282.98,-1013.3 288.98,-1019.3 288.98,-1025.3 288.98,-1025.3 288.98,-1096.7 288.98,-1096.7 288.98,-1102.7 282.98,-1108.7 276.98,-1108.7"/>
<text xml:space="preserve" text-anchor="middle" x="147.3" y="-1091.05" font-family="Helvetica,sans-Serif" font-size="11.00">Sims&#45;Budget: 400 (flach)</text>
<text xml:space="preserve" text-anchor="middle" x="147.3" y="-1077.55" font-family="Helvetica,sans-Serif" font-size="11.00">net_effective_sims, DECOUPLE_NET_SIMS_FROM_</text>
<text xml:space="preserve" text-anchor="middle" x="147.3" y="-1064.05" font-family="Helvetica,sans-Serif" font-size="11.00">ACTIONS=true (Standard): base_sims wird NICHT</text>
<text xml:space="preserve" text-anchor="middle" x="147.3" y="-1050.55" font-family="Helvetica,sans-Serif" font-size="11.00">mehr mit der Aktionszahl skaliert (vorher</text>
<text xml:space="preserve" text-anchor="middle" x="147.3" y="-1037.05" font-family="Helvetica,sans-Serif" font-size="11.00">dynamic_sims, Ø~330 bei Basis 150) — Gumbels</text>
<text xml:space="preserve" text-anchor="middle" x="147.3" y="-1023.55" font-family="Helvetica,sans-Serif" font-size="11.00">Wurzelbreite ist ohnehin fix (GUMBEL_TOP_M)</text>
</g>
<!-- N3&#45;&gt;N3B -->
<g id="edge3" class="edge">
<title>N3&#45;&gt;N3B</title>
<path fill="none" stroke="black" d="M147.3,-1145.5C147.3,-1137.46 147.3,-1128.85 147.3,-1120.33"/>
<polygon fill="black" stroke="black" points="150.8,-1120.34 147.3,-1110.34 143.8,-1120.34 150.8,-1120.34"/>
</g>
<!-- N4 -->
<g id="node5" class="node">
<title>N4</title>
<path fill="#ffe5b4" stroke="black" d="M260.85,-976.3C260.85,-976.3 33.75,-976.3 33.75,-976.3 27.75,-976.3 21.75,-970.3 21.75,-964.3 21.75,-964.3 21.75,-865.9 21.75,-865.9 21.75,-859.9 27.75,-853.9 33.75,-853.9 33.75,-853.9 260.85,-853.9 260.85,-853.9 266.85,-853.9 272.85,-859.9 272.85,-865.9 272.85,-865.9 272.85,-964.3 272.85,-964.3 272.85,-970.3 266.85,-976.3 260.85,-976.3"/>
<text xml:space="preserve" text-anchor="middle" x="147.3" y="-958.65" font-family="Helvetica,sans-Serif" font-size="11.00">Wurzel: Gumbel&#45;Top&#45;m</text>
<text xml:space="preserve" text-anchor="middle" x="147.3" y="-945.15" font-family="Helvetica,sans-Serif" font-size="11.00">GUMBEL_TOP_M=16: g(a)+ln(prior(a)) ziehen,</text>
<text xml:space="preserve" text-anchor="middle" x="147.3" y="-931.65" font-family="Helvetica,sans-Serif" font-size="11.00">Top m behalten — ersetzt Dirichlet&#45;Noise</text>
<text xml:space="preserve" text-anchor="middle" x="147.3" y="-918.15" font-family="Helvetica,sans-Serif" font-size="11.00">+ 95%&#45;Cutoff an der Wurzel komplett.</text>
<text xml:space="preserve" text-anchor="middle" x="147.3" y="-904.65" font-family="Helvetica,sans-Serif" font-size="11.00">G1&#45;Fix: Self&#45;Play = echte Gumbel&#45;Samples</text>
<text xml:space="preserve" text-anchor="middle" x="147.3" y="-891.15" font-family="Helvetica,sans-Serif" font-size="11.00">(Exploration); Arena/Produktion = g(a)=0</text>
<text xml:space="preserve" text-anchor="middle" x="147.3" y="-877.65" font-family="Helvetica,sans-Serif" font-size="11.00">(add_root_noise=false, mctx gumbel_scale=0)</text>
<text xml:space="preserve" text-anchor="middle" x="147.3" y="-864.15" font-family="Helvetica,sans-Serif" font-size="11.00">→ Arena&#45;Suche deterministisch</text>
</g>
<!-- N3B&#45;&gt;N4 -->
<g id="edge4" class="edge">
<title>N3B&#45;&gt;N4</title>
<path fill="none" stroke="black" d="M147.3,-1012.88C147.3,-1004.94 147.3,-996.53 147.3,-988.12"/>
<polygon fill="black" stroke="black" points="150.8,-988.21 147.3,-978.21 143.8,-988.21 150.8,-988.21"/>
</g>
<!-- N5 -->
<g id="node6" class="node">
<title>N5</title>
<path fill="#ffe5b4" stroke="black" d="M263.48,-816.9C263.48,-816.9 31.12,-816.9 31.12,-816.9 25.12,-816.9 19.12,-810.9 19.12,-804.9 19.12,-804.9 19.12,-720 19.12,-720 19.12,-714 25.12,-708 31.12,-708 31.12,-708 263.48,-708 263.48,-708 269.48,-708 275.48,-714 275.48,-720 275.48,-720 275.48,-804.9 275.48,-804.9 275.48,-810.9 269.48,-816.9 263.48,-816.9"/>
<text xml:space="preserve" text-anchor="middle" x="147.3" y="-799.25" font-family="Helvetica,sans-Serif" font-size="11.00">Sequential Halving</text>
<text xml:space="preserve" text-anchor="middle" x="147.3" y="-785.75" font-family="Helvetica,sans-Serif" font-size="11.00">Budget in log2(m) Phasen, jeder Überlebende</text>
<text xml:space="preserve" text-anchor="middle" x="147.3" y="-772.25" font-family="Helvetica,sans-Serif" font-size="11.00">bekommt gleich viele Sims, schlechtere Hälfte</text>
<text xml:space="preserve" text-anchor="middle" x="147.3" y="-758.75" font-family="Helvetica,sans-Serif" font-size="11.00">(nach g(a)+ln(prior)+σ(completed_Q)) fliegt raus.</text>
<text xml:space="preserve" text-anchor="middle" x="147.3" y="-745.25" font-family="Helvetica,sans-Serif" font-size="11.00">G2&#45;Fix: Restbudget ÷ VERBLEIBENDE Phasen</text>
<text xml:space="preserve" text-anchor="middle" x="147.3" y="-731.75" font-family="Helvetica,sans-Serif" font-size="11.00">(mctx&#45;konform, frühe Phasen nicht mehr</text>
<text xml:space="preserve" text-anchor="middle" x="147.3" y="-718.25" font-family="Helvetica,sans-Serif" font-size="11.00">unterbudgetiert)</text>
</g>
<!-- N4&#45;&gt;N5 -->
<g id="edge5" class="edge">
<title>N4&#45;&gt;N5</title>
<path fill="none" stroke="black" d="M147.3,-853.69C147.3,-845.36 147.3,-836.78 147.3,-828.37"/>
<polygon fill="black" stroke="black" points="150.8,-828.57 147.3,-818.57 143.8,-828.57 150.8,-828.57"/>
</g>
<!-- N6 -->
<g id="node7" class="node">
<title>N6</title>
<path fill="#cfe2ff" stroke="black" d="M276.23,-671C276.23,-671 18.38,-671 18.38,-671 12.38,-671 6.38,-665 6.38,-659 6.38,-659 6.38,-547.1 6.38,-547.1 6.38,-541.1 12.38,-535.1 18.38,-535.1 18.38,-535.1 276.23,-535.1 276.23,-535.1 282.23,-535.1 288.23,-541.1 288.23,-547.1 288.23,-547.1 288.23,-659 288.23,-659 288.23,-665 282.23,-671 276.23,-671"/>
<text xml:space="preserve" text-anchor="middle" x="147.3" y="-653.35" font-family="Helvetica,sans-Serif" font-size="11.00">Tiefe ≥1: Baustein B + Widening</text>
<text xml:space="preserve" text-anchor="middle" x="147.3" y="-639.85" font-family="Helvetica,sans-Serif" font-size="11.00">Kuppelplatten&#45;Zug = zweistufiger Suchknoten</text>
<text xml:space="preserve" text-anchor="middle" x="147.3" y="-626.35" font-family="Helvetica,sans-Serif" font-size="11.00">(ChooseDomeSlot/ChooseDrawStackSlot → Choose&#45;</text>
<text xml:space="preserve" text-anchor="middle" x="147.3" y="-612.85" font-family="Helvetica,sans-Serif" font-size="11.00">DomeRotation). Progressive&#45;Widening&#45;Cap</text>
<text xml:space="preserve" text-anchor="middle" x="147.3" y="-599.35" font-family="Helvetica,sans-Serif" font-size="11.00">(MAX_ACTIONS+WIDEN_FACTOR·√N) bestimmt,</text>
<text xml:space="preserve" text-anchor="middle" x="147.3" y="-585.85" font-family="Helvetica,sans-Serif" font-size="11.00">welche Kandidaten überhaupt Kind werden</text>
<text xml:space="preserve" text-anchor="middle" x="147.3" y="-572.35" font-family="Helvetica,sans-Serif" font-size="11.00">(PUCT&#45;Erbe — geplanter Umbau Task #68:</text>
<text xml:space="preserve" text-anchor="middle" x="147.3" y="-558.85" font-family="Helvetica,sans-Serif" font-size="11.00">mctx&#45;treu Auswahl über ALLE Kandidaten,</text>
<text xml:space="preserve" text-anchor="middle" x="147.3" y="-545.35" font-family="Helvetica,sans-Serif" font-size="11.00">Widening+Cutoff entfallen dann)</text>
</g>
<!-- N5&#45;&gt;N6 -->
<g id="edge6" class="edge">
<title>N5&#45;&gt;N6</title>
<path fill="none" stroke="black" d="M147.3,-707.72C147.3,-699.7 147.3,-691.29 147.3,-682.89"/>
<polygon fill="black" stroke="black" points="150.8,-682.97 147.3,-672.97 143.8,-682.97 150.8,-682.97"/>
</g>
<!-- N7 -->
<g id="node8" class="node">
<title>N7</title>
<path fill="#ffe5b4" stroke="black" d="M237.98,-498.1C237.98,-498.1 56.62,-498.1 56.62,-498.1 50.62,-498.1 44.63,-492.1 44.63,-486.1 44.63,-486.1 44.63,-428.2 44.63,-428.2 44.63,-422.2 50.63,-416.2 56.63,-416.2 56.63,-416.2 237.98,-416.2 237.98,-416.2 243.98,-416.2 249.98,-422.2 249.98,-428.2 249.98,-428.2 249.98,-486.1 249.98,-486.1 249.98,-492.1 243.98,-498.1 237.98,-498.1"/>
<text xml:space="preserve" text-anchor="middle" x="147.3" y="-480.45" font-family="Helvetica,sans-Serif" font-size="11.00">Tiefe ≥1: deterministische Auswahl</text>
<text xml:space="preserve" text-anchor="middle" x="147.3" y="-466.95" font-family="Helvetica,sans-Serif" font-size="11.00">argmax[π&#39;_node(a) − N(a)/(1+ΣN)],</text>
<text xml:space="preserve" text-anchor="middle" x="147.3" y="-453.45" font-family="Helvetica,sans-Serif" font-size="11.00">π&#39;_node = completed&#45;Q&#45;Softmax</text>
<text xml:space="preserve" text-anchor="middle" x="147.3" y="-439.95" font-family="Helvetica,sans-Serif" font-size="11.00">(improved_policy) — ersetzt best_puct</text>
<text xml:space="preserve" text-anchor="middle" x="147.3" y="-426.45" font-family="Helvetica,sans-Serif" font-size="11.00">im Gumbel&#45;Pfad</text>
</g>
<!-- N6&#45;&gt;N7 -->
<g id="edge7" class="edge">
<title>N6&#45;&gt;N7</title>
<path fill="none" stroke="black" d="M147.3,-534.73C147.3,-526.38 147.3,-517.94 147.3,-509.87"/>
<polygon fill="black" stroke="black" points="150.8,-509.88 147.3,-499.88 143.8,-509.88 150.8,-509.88"/>
</g>
<!-- N8 -->
<g id="node9" class="node">
<title>N8</title>
<path fill="#ffe5b4" stroke="black" d="M272.85,-369.7C272.85,-369.7 21.75,-369.7 21.75,-369.7 15.75,-369.7 9.75,-363.7 9.75,-357.7 9.75,-357.7 9.75,-259.3 9.75,-259.3 9.75,-253.3 15.75,-247.3 21.75,-247.3 21.75,-247.3 272.85,-247.3 272.85,-247.3 278.85,-247.3 284.85,-253.3 284.85,-259.3 284.85,-259.3 284.85,-357.7 284.85,-357.7 284.85,-363.7 278.85,-369.7 272.85,-369.7"/>
<text xml:space="preserve" text-anchor="middle" x="147.3" y="-352.05" font-family="Helvetica,sans-Serif" font-size="11.00">Expansion + Blattbewertung</text>
<text xml:space="preserve" text-anchor="middle" x="147.3" y="-338.55" font-family="Helvetica,sans-Serif" font-size="11.00">Neuer Knoten (zurück zu Netz&#45;Forward&#45;Pass)</text>
<text xml:space="preserve" text-anchor="middle" x="147.3" y="-325.05" font-family="Helvetica,sans-Serif" font-size="11.00">ACTIVE_LEAF=Net: value_to_win_prob</text>
<text xml:space="preserve" text-anchor="middle" x="147.3" y="-311.55" font-family="Helvetica,sans-Serif" font-size="11.00">(2 Forward&#45;Pässe, Ego&#45;Perspektive)</text>
<text xml:space="preserve" text-anchor="middle" x="147.3" y="-298.05" font-family="Helvetica,sans-Serif" font-size="11.00">+ Floor&#45;Shaping (FLOOR_SHAPING_WEIGHT=0.3,</text>
<text xml:space="preserve" text-anchor="middle" x="147.3" y="-284.55" font-family="Helvetica,sans-Serif" font-size="11.00">exakte Bodenstrafe additiv — VALIDIERT:</text>
<text xml:space="preserve" text-anchor="middle" x="147.3" y="-271.05" font-family="Helvetica,sans-Serif" font-size="11.00">gepaart n=150, +14pp, McNemar p=0.0075)</text>
<text xml:space="preserve" text-anchor="middle" x="147.3" y="-257.55" font-family="Helvetica,sans-Serif" font-size="11.00">ACTIVE_LEAF=Dfs (dormant): exakter Tiling&#45;Solver</text>
</g>
<!-- N7&#45;&gt;N8 -->
<g id="edge8" class="edge">
<title>N7&#45;&gt;N8</title>
<path fill="none" stroke="black" d="M147.3,-416.08C147.3,-405.34 147.3,-393.41 147.3,-381.51"/>
<polygon fill="black" stroke="black" points="150.8,-381.68 147.3,-371.68 143.8,-381.68 150.8,-381.68"/>
</g>
<!-- N9 -->
<g id="node10" class="node">
<title>N9</title>
<path fill="#ffe5b4" stroke="black" d="M230.1,-210.3C230.1,-210.3 64.5,-210.3 64.5,-210.3 58.5,-210.3 52.5,-204.3 52.5,-198.3 52.5,-198.3 52.5,-167.4 52.5,-167.4 52.5,-161.4 58.5,-155.4 64.5,-155.4 64.5,-155.4 230.1,-155.4 230.1,-155.4 236.1,-155.4 242.1,-161.4 242.1,-167.4 242.1,-167.4 242.1,-198.3 242.1,-198.3 242.1,-204.3 236.1,-210.3 230.1,-210.3"/>
<text xml:space="preserve" text-anchor="middle" x="147.3" y="-192.65" font-family="Helvetica,sans-Serif" font-size="11.00">Backpropagation</text>
<text xml:space="preserve" text-anchor="middle" x="147.3" y="-179.15" font-family="Helvetica,sans-Serif" font-size="11.00">Wert + Besuchszähler N entlang</text>
<text xml:space="preserve" text-anchor="middle" x="147.3" y="-165.65" font-family="Helvetica,sans-Serif" font-size="11.00">des Pfads zur Wurzel zurückführen</text>
</g>
<!-- N8&#45;&gt;N9 -->
<g id="edge9" class="edge">
<title>N8&#45;&gt;N9</title>
<path fill="none" stroke="black" d="M147.3,-247.12C147.3,-238.66 147.3,-230.15 147.3,-222.25"/>
<polygon fill="black" stroke="black" points="150.8,-222.31 147.3,-212.31 143.8,-222.31 150.8,-222.31"/>
</g>
<!-- N9&#45;&gt;N6 -->
<g id="edge10" class="edge">
<title>N9&#45;&gt;N6</title>
<path fill="none" stroke="black" stroke-dasharray="5,2" d="M242.5,-206.06C262.91,-215.39 282.01,-228.6 294.3,-247.3 324.19,-292.75 301.52,-315.78 294.3,-369.7 286.45,-428.33 289.93,-447.5 259.3,-498.1 253.37,-507.9 246.24,-517.36 238.51,-526.3"/>
<polygon fill="black" stroke="black" points="236.03,-523.82 231.93,-533.59 241.23,-528.51 236.03,-523.82"/>
<text xml:space="preserve" text-anchor="middle" x="364.34" y="-389.65" font-family="Helvetica,sans-Serif" font-size="9.00">wiederholt bis Sims&#45;Budget erreicht</text>
</g>
<!-- N10 -->
<g id="node11" class="node">
<title>N10</title>
<path fill="#cfe2ff" stroke="black" d="M270.98,-108.9C270.98,-108.9 23.62,-108.9 23.62,-108.9 17.62,-108.9 11.62,-102.9 11.62,-96.9 11.62,-96.9 11.62,-12 11.62,-12 11.62,-6 17.62,0 23.62,0 23.62,0 270.98,0 270.98,0 276.98,0 282.98,-6 282.98,-12 282.98,-12 282.98,-96.9 282.98,-96.9 282.98,-102.9 276.98,-108.9 270.98,-108.9"/>
<text xml:space="preserve" text-anchor="middle" x="147.3" y="-91.25" font-family="Helvetica,sans-Serif" font-size="11.00">Zugwahl</text>
<text xml:space="preserve" text-anchor="middle" x="147.3" y="-77.75" font-family="Helvetica,sans-Serif" font-size="11.00">Arena/Produktion: unter den Max&#45;Visit&#45;</text>
<text xml:space="preserve" text-anchor="middle" x="147.3" y="-64.25" font-family="Helvetica,sans-Serif" font-size="11.00">Überlebenden argmax[ln(prior)+σ(Q)]</text>
<text xml:space="preserve" text-anchor="middle" x="147.3" y="-50.75" font-family="Helvetica,sans-Serif" font-size="11.00">(gumbel_final_root_action, ohne g).</text>
<text xml:space="preserve" text-anchor="middle" x="147.3" y="-37.25" font-family="Helvetica,sans-Serif" font-size="11.00">Self&#45;Play: gespielte Aktion besuchsbasiert,</text>
<text xml:space="preserve" text-anchor="middle" x="147.3" y="-23.75" font-family="Helvetica,sans-Serif" font-size="11.00">Trainingsziel = completed&#45;Q&#45;Softmax über ALLE</text>
<text xml:space="preserve" text-anchor="middle" x="147.3" y="-10.25" font-family="Helvetica,sans-Serif" font-size="11.00">Wurzelkandidaten (net_root_child_stats_and_policy)</text>
</g>
<!-- N9&#45;&gt;N10 -->
<g id="edge11" class="edge">
<title>N9&#45;&gt;N10</title>
<path fill="none" stroke="black" d="M147.3,-155.04C147.3,-144.83 147.3,-132.7 147.3,-120.48"/>
<polygon fill="black" stroke="black" points="150.8,-120.8 147.3,-110.8 143.8,-120.8 150.8,-120.8"/>
<text xml:space="preserve" text-anchor="middle" x="178.43" y="-128.85" font-family="Helvetica,sans-Serif" font-size="9.00">Budget erreicht</text>
</g>
</g>
</svg>
