<?xml version="1.0" encoding="UTF-8" standalone="no"?>
<!DOCTYPE svg PUBLIC "-//W3C//DTD SVG 1.1//EN"
 "http://www.w3.org/Graphics/SVG/1.1/DTD/svg11.dtd">
<!-- Generated by graphviz version 15.1.0 (20260618.0150)
 -->
<!-- Title: SelfplayTraining Pages: 1 -->
<svg width="406pt" height="576pt"
 viewBox="0.00 0.00 406.00 576.00" xmlns="http://www.w3.org/2000/svg" xmlns:xlink="http://www.w3.org/1999/xlink">
<g id="graph0" class="graph" transform="scale(1 1) rotate(0) translate(4 572.46)">
<title>SelfplayTraining</title>
<polygon fill="white" stroke="none" points="-4,4 -4,-572.46 402.2,-572.46 402.2,4 -4,4"/>
<!-- S1 -->
<g id="node1" class="node">
<title>S1</title>
<path fill="#cfe2ff" stroke="black" d="M190.54,-568.46C190.54,-568.46 53.62,-568.46 53.62,-568.46 47.62,-568.46 41.62,-562.46 41.62,-556.46 41.62,-556.46 41.62,-536.18 41.62,-536.18 41.62,-530.18 47.62,-524.18 53.62,-524.18 53.62,-524.18 190.54,-524.18 190.54,-524.18 196.54,-524.18 202.54,-530.18 202.54,-536.18 202.54,-536.18 202.54,-556.46 202.54,-556.46 202.54,-562.46 196.54,-568.46 190.54,-568.46"/>
<text xml:space="preserve" text-anchor="middle" x="122.08" y="-549.37" font-family="Helvetica,sans-Serif" font-size="11.00">Self&#45;Play</text>
<text xml:space="preserve" text-anchor="middle" x="122.08" y="-535.87" font-family="Helvetica,sans-Serif" font-size="11.00">Champion gegen sich selbst</text>
</g>
<!-- S2 -->
<g id="node2" class="node">
<title>S2</title>
<path fill="#ffe5b4" stroke="black" d="M222.04,-487.18C222.04,-487.18 22.12,-487.18 22.12,-487.18 16.12,-487.18 10.12,-481.18 10.12,-475.18 10.12,-475.18 10.12,-454.9 10.12,-454.9 10.12,-448.9 16.12,-442.9 22.12,-442.9 22.12,-442.9 222.04,-442.9 222.04,-442.9 228.04,-442.9 234.04,-448.9 234.04,-454.9 234.04,-454.9 234.04,-475.18 234.04,-475.18 234.04,-481.18 228.04,-487.18 222.04,-487.18"/>
<text xml:space="preserve" text-anchor="middle" x="122.08" y="-468.09" font-family="Helvetica,sans-Serif" font-size="11.00">Korpus</text>
<text xml:space="preserve" text-anchor="middle" x="122.08" y="-454.59" font-family="Helvetica,sans-Serif" font-size="11.00">Replay&#45;Fenster: frisch + 2 Alt&#45;Champions</text>
</g>
<!-- S1&#45;&gt;S2 -->
<g id="edge1" class="edge">
<title>S1&#45;&gt;S2</title>
<path fill="none" stroke="black" d="M122.08,-524.07C122.08,-516.41 122.08,-507.56 122.08,-499.12"/>
<polygon fill="black" stroke="black" points="125.59,-499.13 122.09,-489.13 118.59,-499.13 125.59,-499.13"/>
</g>
<!-- S3 -->
<g id="node3" class="node">
<title>S3</title>
<path fill="#ffe5b4" stroke="black" d="M232.17,-405.9C232.17,-405.9 12,-405.9 12,-405.9 6,-405.9 0,-399.9 0,-393.9 0,-393.9 0,-373.62 0,-373.62 0,-367.62 6,-361.62 12,-361.62 12,-361.62 232.17,-361.62 232.17,-361.62 238.17,-361.62 244.17,-367.62 244.17,-373.62 244.17,-373.62 244.17,-393.9 244.17,-393.9 244.17,-399.9 238.17,-405.9 232.17,-405.9"/>
<text xml:space="preserve" text-anchor="middle" x="122.08" y="-386.81" font-family="Helvetica,sans-Serif" font-size="11.00">Dataset</text>
<text xml:space="preserve" text-anchor="middle" x="122.08" y="-373.31" font-family="Helvetica,sans-Serif" font-size="11.00">Policy = completed&#45;Q, Value = TD&#45;Mix (nortv)</text>
</g>
<!-- S2&#45;&gt;S3 -->
<g id="edge2" class="edge">
<title>S2&#45;&gt;S3</title>
<path fill="none" stroke="black" d="M122.08,-442.79C122.08,-435.13 122.08,-426.28 122.08,-417.84"/>
<polygon fill="black" stroke="black" points="125.59,-417.85 122.09,-407.85 118.59,-417.85 125.59,-417.85"/>
</g>
<!-- S4 -->
<g id="node4" class="node">
<title>S4</title>
<path fill="#cfe2ff" stroke="black" d="M200.67,-324.62C200.67,-324.62 43.5,-324.62 43.5,-324.62 37.5,-324.62 31.5,-318.62 31.5,-312.62 31.5,-312.62 31.5,-278.84 31.5,-278.84 31.5,-272.84 37.5,-266.84 43.5,-266.84 43.5,-266.84 200.67,-266.84 200.67,-266.84 206.67,-266.84 212.67,-272.84 212.67,-278.84 212.67,-278.84 212.67,-312.62 212.67,-312.62 212.67,-318.62 206.67,-324.62 200.67,-324.62"/>
<text xml:space="preserve" text-anchor="middle" x="122.08" y="-305.53" font-family="Helvetica,sans-Serif" font-size="11.00">Training</text>
<text xml:space="preserve" text-anchor="middle" x="122.08" y="-292.03" font-family="Helvetica,sans-Serif" font-size="11.00">Doppel&#45;Arm warm (flach + 2D)</text>
<text xml:space="preserve" text-anchor="middle" x="122.08" y="-278.53" font-family="Helvetica,sans-Serif" font-size="11.00">Linie seit v19 2D&#45;nativ → ONNX</text>
</g>
<!-- S3&#45;&gt;S4 -->
<g id="edge3" class="edge">
<title>S3&#45;&gt;S4</title>
<path fill="none" stroke="black" d="M122.08,-361.49C122.08,-353.81 122.08,-344.88 122.08,-336.14"/>
<polygon fill="black" stroke="black" points="125.59,-336.41 122.09,-326.41 118.59,-336.41 125.59,-336.41"/>
</g>
<!-- S5 -->
<g id="node5" class="node">
<title>S5</title>
<path fill="#d9f2d9" stroke="black" d="M202.92,-229.84C202.92,-229.84 41.25,-229.84 41.25,-229.84 35.25,-229.84 29.25,-223.84 29.25,-217.84 29.25,-217.84 29.25,-184.06 29.25,-184.06 29.25,-178.06 35.25,-172.06 41.25,-172.06 41.25,-172.06 202.92,-172.06 202.92,-172.06 208.92,-172.06 214.92,-178.06 214.92,-184.06 214.92,-184.06 214.92,-217.84 214.92,-217.84 214.92,-223.84 208.92,-229.84 202.92,-229.84"/>
<text xml:space="preserve" text-anchor="middle" x="122.08" y="-210.75" font-family="Helvetica,sans-Serif" font-size="11.00">Diagnose</text>
<text xml:space="preserve" text-anchor="middle" x="122.08" y="-197.25" font-family="Helvetica,sans-Serif" font-size="11.00">Orakel&#45;Metriken (v18&#45;Referenz,</text>
<text xml:space="preserve" text-anchor="middle" x="122.08" y="-183.75" font-family="Helvetica,sans-Serif" font-size="11.00">arena&#45;validiert im Daten&#45;Regime)</text>
</g>
<!-- S4&#45;&gt;S5 -->
<g id="edge4" class="edge">
<title>S4&#45;&gt;S5</title>
<path fill="none" stroke="black" d="M122.08,-266.39C122.08,-258.57 122.08,-249.93 122.08,-241.59"/>
<polygon fill="black" stroke="black" points="125.59,-241.63 122.09,-231.63 118.59,-241.63 125.59,-241.63"/>
</g>
<!-- S6 -->
<g id="node6" class="node">
<title>S6</title>
<path fill="#ffe5b4" stroke="black" d="M178.92,-135.06C178.92,-135.06 65.25,-135.06 65.25,-135.06 59.25,-135.06 53.25,-129.06 53.25,-123.06 53.25,-123.06 53.25,-102.78 53.25,-102.78 53.25,-96.78 59.25,-90.78 65.25,-90.78 65.25,-90.78 178.92,-90.78 178.92,-90.78 184.92,-90.78 190.92,-96.78 190.92,-102.78 190.92,-102.78 190.92,-123.06 190.92,-123.06 190.92,-129.06 184.92,-135.06 178.92,-135.06"/>
<text xml:space="preserve" text-anchor="middle" x="122.08" y="-115.97" font-family="Helvetica,sans-Serif" font-size="11.00">Gating</text>
<text xml:space="preserve" text-anchor="middle" x="122.08" y="-102.47" font-family="Helvetica,sans-Serif" font-size="11.00">gepaarte Seeds, SPRT</text>
</g>
<!-- S5&#45;&gt;S6 -->
<g id="edge5" class="edge">
<title>S5&#45;&gt;S6</title>
<path fill="none" stroke="black" d="M122.08,-171.78C122.08,-163.72 122.08,-154.87 122.08,-146.56"/>
<polygon fill="black" stroke="black" points="125.59,-146.84 122.09,-136.84 118.59,-146.84 125.59,-146.84"/>
</g>
<!-- S6&#45;&gt;S4 -->
<g id="edge7" class="edge">
<title>S6&#45;&gt;S4</title>
<path fill="none" stroke="black" stroke-dasharray="5,2" d="M160.23,-135.52C189.1,-151.89 223.85,-171.65 224.08,-172.06 236.99,-194.26 236.44,-207.33 224.08,-229.84 217.61,-241.63 207.99,-251.58 197.21,-259.87"/>
<polygon fill="black" stroke="black" points="195.29,-256.94 189.15,-265.58 199.33,-262.66 195.29,-256.94"/>
<text xml:space="preserve" text-anchor="middle" x="266.18" y="-197.65" font-family="Helvetica,sans-Serif" font-size="9.00">nicht bestanden</text>
</g>
<!-- S7 -->
<g id="node7" class="node">
<title>S7</title>
<path fill="#e2d9f3" stroke="black" d="M164.29,-44.28C164.29,-44.28 79.87,-44.28 79.87,-44.28 73.87,-44.28 67.87,-38.28 67.87,-32.28 67.87,-32.28 67.87,-12 67.87,-12 67.87,-6 73.87,0 79.87,0 79.87,0 164.29,0 164.29,0 170.29,0 176.29,-6 176.29,-12 176.29,-12 176.29,-32.28 176.29,-32.28 176.29,-38.28 170.29,-44.28 164.29,-44.28"/>
<text xml:space="preserve" text-anchor="middle" x="122.08" y="-25.19" font-family="Helvetica,sans-Serif" font-size="11.00">Neuer Champion</text>
<text xml:space="preserve" text-anchor="middle" x="122.08" y="-11.69" font-family="Helvetica,sans-Serif" font-size="11.00">+ Elo&#45;Kader</text>
</g>
<!-- S6&#45;&gt;S7 -->
<g id="edge6" class="edge">
<title>S6&#45;&gt;S7</title>
<path fill="none" stroke="black" d="M122.08,-90.43C122.08,-80.15 122.08,-67.6 122.08,-56.15"/>
<polygon fill="black" stroke="black" points="125.59,-56.25 122.09,-46.25 118.59,-56.25 125.59,-56.25"/>
<text xml:space="preserve" text-anchor="middle" x="143.83" y="-64.23" font-family="Helvetica,sans-Serif" font-size="9.00">bestanden</text>
</g>
<!-- S7&#45;&gt;S1 -->
<g id="edge8" class="edge">
<title>S7&#45;&gt;S1</title>
<path fill="none" stroke="black" stroke-dasharray="5,2" d="M166.42,-44.73C210.37,-68.9 275.07,-112.61 303.08,-172.06 363.86,-301.03 332.28,-375.96 243.08,-487.18 232.56,-500.3 218.35,-510.65 203.37,-518.74"/>
<polygon fill="black" stroke="black" points="202.15,-515.43 194.79,-523.06 205.3,-521.69 202.15,-515.43"/>
<text xml:space="preserve" text-anchor="middle" x="366.32" y="-292.43" font-family="Helvetica,sans-Serif" font-size="9.00">nächster Zyklus</text>
</g>
</g>
</svg>
