<?xml version="1.0" encoding="UTF-8" standalone="no"?>
<!DOCTYPE svg PUBLIC "-//W3C//DTD SVG 1.1//EN"
 "http://www.w3.org/Graphics/SVG/1.1/DTD/svg11.dtd">
<!-- Generated by graphviz version 15.1.0 (20260618.0150)
 -->
<!-- Title: SelfplayTraining Pages: 1 -->
<svg width="542pt" height="1078pt"
 viewBox="0.00 0.00 542.00 1078.00" xmlns="http://www.w3.org/2000/svg" xmlns:xlink="http://www.w3.org/1999/xlink">
<g id="graph0" class="graph" transform="scale(1 1) rotate(0) translate(4 1073.6)">
<title>SelfplayTraining</title>
<polygon fill="white" stroke="none" points="-4,4 -4,-1073.6 538.34,-1073.6 538.34,4 -4,4"/>
<!-- S1 -->
<g id="node1" class="node">
<title>S1</title>
<path fill="#cfe2ff" stroke="black" d="M295.73,-1069.6C295.73,-1069.6 51.38,-1069.6 51.38,-1069.6 45.38,-1069.6 39.38,-1063.6 39.38,-1057.6 39.38,-1057.6 39.38,-999.7 39.38,-999.7 39.38,-993.7 45.38,-987.7 51.38,-987.7 51.38,-987.7 295.73,-987.7 295.73,-987.7 301.73,-987.7 307.73,-993.7 307.73,-999.7 307.73,-999.7 307.73,-1057.6 307.73,-1057.6 307.73,-1063.6 301.73,-1069.6 295.73,-1069.6"/>
<text xml:space="preserve" text-anchor="middle" x="173.55" y="-1051.95" font-family="Helvetica,sans-Serif" font-size="11.00">self_play.py &#45;&#45;mode network</text>
<text xml:space="preserve" text-anchor="middle" x="173.55" y="-1038.45" font-family="Helvetica,sans-Serif" font-size="11.00">Keep&#45;Awake (SetThreadExecutionState, gegen</text>
<text xml:space="preserve" text-anchor="middle" x="173.55" y="-1024.95" font-family="Helvetica,sans-Serif" font-size="11.00">Windows&#45;Standby) + Chunk&#45;Supervisor</text>
<text xml:space="preserve" text-anchor="middle" x="173.55" y="-1011.45" font-family="Helvetica,sans-Serif" font-size="11.00">(MAX_CHUNK_TIMEOUT_SECS=450, Kill+Retry,</text>
<text xml:space="preserve" text-anchor="middle" x="173.55" y="-997.95" font-family="Helvetica,sans-Serif" font-size="11.00">Hard&#45;Abort nach 3 Hängern in Folge)</text>
</g>
<!-- S2 -->
<g id="node2" class="node">
<title>S2</title>
<path fill="#d9f2d9" stroke="black" d="M279.23,-950.7C279.23,-950.7 67.88,-950.7 67.88,-950.7 61.88,-950.7 55.88,-944.7 55.88,-938.7 55.88,-938.7 55.88,-867.3 55.88,-867.3 55.88,-861.3 61.88,-855.3 67.88,-855.3 67.88,-855.3 279.23,-855.3 279.23,-855.3 285.23,-855.3 291.23,-861.3 291.23,-867.3 291.23,-867.3 291.23,-938.7 291.23,-938.7 291.23,-944.7 285.23,-950.7 279.23,-950.7"/>
<text xml:space="preserve" text-anchor="middle" x="173.55" y="-933.05" font-family="Helvetica,sans-Serif" font-size="11.00">Je Partie: präemptiver Watchdog</text>
<text xml:space="preserve" text-anchor="middle" x="173.55" y="-919.55" font-family="Helvetica,sans-Serif" font-size="11.00">(run_with_watchdog, eigener OS&#45;Thread mit</text>
<text xml:space="preserve" text-anchor="middle" x="173.55" y="-906.05" font-family="Helvetica,sans-Serif" font-size="11.00">harter recv_timeout&#45;Deadline) — hängende</text>
<text xml:space="preserve" text-anchor="middle" x="173.55" y="-892.55" font-family="Helvetica,sans-Serif" font-size="11.00">Partie wird verworfen statt den Chunk</text>
<text xml:space="preserve" text-anchor="middle" x="173.55" y="-879.05" font-family="Helvetica,sans-Serif" font-size="11.00">zu blockieren (Fix nach fill_large_factory&#45;</text>
<text xml:space="preserve" text-anchor="middle" x="173.55" y="-865.55" font-family="Helvetica,sans-Serif" font-size="11.00">Endlosschleife, Commit 1a683d3)</text>
</g>
<!-- S1&#45;&gt;S2 -->
<g id="edge1" class="edge">
<title>S1&#45;&gt;S2</title>
<path fill="none" stroke="black" d="M173.55,-987.5C173.55,-979.46 173.55,-970.85 173.55,-962.33"/>
<polygon fill="black" stroke="black" points="177.05,-962.34 173.55,-952.34 170.05,-962.34 177.05,-962.34"/>
</g>
<!-- S3 -->
<g id="node3" class="node">
<title>S3</title>
<path fill="#ffe5b4" stroke="black" d="M301.35,-818.3C301.35,-818.3 45.75,-818.3 45.75,-818.3 39.75,-818.3 33.75,-812.3 33.75,-806.3 33.75,-806.3 33.75,-748.4 33.75,-748.4 33.75,-742.4 39.75,-736.4 45.75,-736.4 45.75,-736.4 301.35,-736.4 301.35,-736.4 307.35,-736.4 313.35,-742.4 313.35,-748.4 313.35,-748.4 313.35,-806.3 313.35,-806.3 313.35,-812.3 307.35,-818.3 301.35,-818.3"/>
<text xml:space="preserve" text-anchor="middle" x="173.55" y="-800.65" font-family="Helvetica,sans-Serif" font-size="11.00">Records je Drafting&#45;Schritt</text>
<text xml:space="preserve" text-anchor="middle" x="173.55" y="-787.15" font-family="Helvetica,sans-Serif" font-size="11.00">policy = completed&#45;Q&#45;Verteilung (dicht, alle</text>
<text xml:space="preserve" text-anchor="middle" x="173.55" y="-773.65" font-family="Helvetica,sans-Serif" font-size="11.00">Wurzelkandidaten) | bootstrap_value (r+2&#45;Horizont)</text>
<text xml:space="preserve" text-anchor="middle" x="173.55" y="-760.15" font-family="Helvetica,sans-Serif" font-size="11.00">| round_transition_value | scores + scores_unclamped</text>
<text xml:space="preserve" text-anchor="middle" x="173.55" y="-746.65" font-family="Helvetica,sans-Serif" font-size="11.00">(Fund 7) | Pseudo&#45;Diagnose&#45;Records gefiltert</text>
</g>
<!-- S2&#45;&gt;S3 -->
<g id="edge2" class="edge">
<title>S2&#45;&gt;S3</title>
<path fill="none" stroke="black" d="M173.55,-854.9C173.55,-846.74 173.55,-838.21 173.55,-829.93"/>
<polygon fill="black" stroke="black" points="177.05,-829.98 173.55,-819.98 170.05,-829.98 177.05,-829.98"/>
</g>
<!-- S4 -->
<g id="node4" class="node">
<title>S4</title>
<path fill="#ffe5b4" stroke="black" d="M298.73,-699.4C298.73,-699.4 48.38,-699.4 48.38,-699.4 42.38,-699.4 36.38,-693.4 36.38,-687.4 36.38,-687.4 36.38,-643 36.38,-643 36.38,-637 42.38,-631 48.38,-631 48.38,-631 298.73,-631 298.73,-631 304.73,-631 310.73,-637 310.73,-643 310.73,-643 310.73,-687.4 310.73,-687.4 310.73,-693.4 304.73,-699.4 298.73,-699.4"/>
<text xml:space="preserve" text-anchor="middle" x="173.55" y="-681.75" font-family="Helvetica,sans-Serif" font-size="11.00">Korpus: selfplay_netcq_*.pkl</text>
<text xml:space="preserve" text-anchor="middle" x="173.55" y="-668.25" font-family="Helvetica,sans-Serif" font-size="11.00">Chunks à 10 Spiele. Regel&#45;Regime NICHT mischen:</text>
<text xml:space="preserve" text-anchor="middle" x="173.55" y="-654.75" font-family="Helvetica,sans-Serif" font-size="11.00">domefactB &amp; älter (vor Regelfixes 82e8a88)</text>
<text xml:space="preserve" text-anchor="middle" x="173.55" y="-641.25" font-family="Helvetica,sans-Serif" font-size="11.00">bleiben dauerhaft archiviert (hs200&#45;Präzedenz)</text>
</g>
<!-- S3&#45;&gt;S4 -->
<g id="edge3" class="edge">
<title>S3&#45;&gt;S4</title>
<path fill="none" stroke="black" d="M173.55,-735.96C173.55,-727.86 173.55,-719.31 173.55,-711.07"/>
<polygon fill="black" stroke="black" points="177.05,-711.23 173.55,-701.23 170.05,-711.23 177.05,-711.23"/>
</g>
<!-- S5 -->
<g id="node5" class="node">
<title>S5</title>
<path fill="#cfe2ff" stroke="black" d="M335.1,-594C335.1,-594 12,-594 12,-594 6,-594 0,-588 0,-582 0,-582 0,-497.1 0,-497.1 0,-491.1 6,-485.1 12,-485.1 12,-485.1 335.1,-485.1 335.1,-485.1 341.1,-485.1 347.1,-491.1 347.1,-497.1 347.1,-497.1 347.1,-582 347.1,-582 347.1,-588 341.1,-594 335.1,-594"/>
<text xml:space="preserve" text-anchor="middle" x="173.55" y="-576.35" font-family="Helvetica,sans-Serif" font-size="11.00">MosaicDataset (VALUE_SCHEMA_VERSION=15)</text>
<text xml:space="preserve" text-anchor="middle" x="173.55" y="-562.85" font-family="Helvetica,sans-Serif" font-size="11.00">value&#45;Ziel: tanh((own−opp)/50) auf scores_unclamped</text>
<text xml:space="preserve" text-anchor="middle" x="173.55" y="-549.35" font-family="Helvetica,sans-Serif" font-size="11.00">→ rtv ersetzt, wo vorhanden → TD&#45;Mix:</text>
<text xml:space="preserve" text-anchor="middle" x="173.55" y="-535.85" font-family="Helvetica,sans-Serif" font-size="11.00">val = TD_LAMBDA·bootstrap + (1−TD_LAMBDA)·val</text>
<text xml:space="preserve" text-anchor="middle" x="173.55" y="-522.35" font-family="Helvetica,sans-Serif" font-size="11.00">(TD_LAMBDA=0.5) | POLICY_TARGET_SHARPEN_EXPONENT:</text>
<text xml:space="preserve" text-anchor="middle" x="173.55" y="-508.85" font-family="Helvetica,sans-Serif" font-size="11.00">2.0 vs. 1.0 als v11/v11_sharp1&#45;A/B (Schärfen</text>
<text xml:space="preserve" text-anchor="middle" x="173.55" y="-495.35" font-family="Helvetica,sans-Serif" font-size="11.00">verzerrt evtl. Gumbels π&#39;&#45;Ziel)</text>
</g>
<!-- S4&#45;&gt;S5 -->
<g id="edge4" class="edge">
<title>S4&#45;&gt;S5</title>
<path fill="none" stroke="black" d="M173.55,-630.74C173.55,-622.88 173.55,-614.24 173.55,-605.52"/>
<polygon fill="black" stroke="black" points="177.05,-605.58 173.55,-595.58 170.05,-605.58 177.05,-605.58"/>
</g>
<!-- S6 -->
<g id="node6" class="node">
<title>S6</title>
<path fill="#cfe2ff" stroke="black" d="M315.23,-448.1C315.23,-448.1 31.88,-448.1 31.88,-448.1 25.88,-448.1 19.88,-442.1 19.88,-436.1 19.88,-436.1 19.88,-378.2 19.88,-378.2 19.88,-372.2 25.88,-366.2 31.88,-366.2 31.88,-366.2 315.23,-366.2 315.23,-366.2 321.23,-366.2 327.23,-372.2 327.23,-378.2 327.23,-378.2 327.23,-436.1 327.23,-436.1 327.23,-442.1 321.23,-448.1 315.23,-448.1"/>
<text xml:space="preserve" text-anchor="middle" x="173.55" y="-430.45" font-family="Helvetica,sans-Serif" font-size="11.00">Training (Warm&#45;Start Vorgänger)</text>
<text xml:space="preserve" text-anchor="middle" x="173.55" y="-416.95" font-family="Helvetica,sans-Serif" font-size="11.00">Early Stopping (Val&#45;Policy&#45;Plateau),</text>
<text xml:space="preserve" text-anchor="middle" x="173.55" y="-403.45" font-family="Helvetica,sans-Serif" font-size="11.00">Checkpoint&#45;Auswahl C8: kombinierte Val&#45;Metrik</text>
<text xml:space="preserve" text-anchor="middle" x="173.55" y="-389.95" font-family="Helvetica,sans-Serif" font-size="11.00">p_loss + VALUE_WEIGHT·v_loss + POINTS_WEIGHT·pts</text>
<text xml:space="preserve" text-anchor="middle" x="173.55" y="-376.45" font-family="Helvetica,sans-Serif" font-size="11.00">→ Export ONNX (4 Tensoren)</text>
</g>
<!-- S5&#45;&gt;S6 -->
<g id="edge5" class="edge">
<title>S5&#45;&gt;S6</title>
<path fill="none" stroke="black" d="M173.55,-484.76C173.55,-476.46 173.55,-467.91 173.55,-459.66"/>
<polygon fill="black" stroke="black" points="177.05,-459.78 173.55,-449.78 170.05,-459.78 177.05,-459.78"/>
</g>
<!-- S7 -->
<g id="node7" class="node">
<title>S7</title>
<path fill="#d9f2d9" stroke="black" d="M303.23,-329.2C303.23,-329.2 43.88,-329.2 43.88,-329.2 37.88,-329.2 31.88,-323.2 31.88,-317.2 31.88,-317.2 31.88,-272.8 31.88,-272.8 31.88,-266.8 37.88,-260.8 43.88,-260.8 43.88,-260.8 303.23,-260.8 303.23,-260.8 309.23,-260.8 315.23,-266.8 315.23,-272.8 315.23,-272.8 315.23,-317.2 315.23,-317.2 315.23,-323.2 309.23,-329.2 303.23,-329.2"/>
<text xml:space="preserve" text-anchor="middle" x="173.55" y="-311.55" font-family="Helvetica,sans-Serif" font-size="11.00">Diagnose&#45;Kette</text>
<text xml:space="preserve" text-anchor="middle" x="173.55" y="-298.05" font-family="Helvetica,sans-Serif" font-size="11.00">Policy&#45;Top&#45;1/Top&#45;3 (Val&#45;Split) | Value&#45;R² je Runde</text>
<text xml:space="preserve" text-anchor="middle" x="173.55" y="-284.55" font-family="Helvetica,sans-Serif" font-size="11.00">(vs. Noise&#45;Floor&#45;Deckel 0.007/0.17/0.44 R1&#45;R3)</text>
<text xml:space="preserve" text-anchor="middle" x="173.55" y="-271.05" font-family="Helvetica,sans-Serif" font-size="11.00">| Geschwister&#45;Kendall&#45;Tau R1+R2 | Label&#45;Histogramm</text>
</g>
<!-- S6&#45;&gt;S7 -->
<g id="edge6" class="edge">
<title>S6&#45;&gt;S7</title>
<path fill="none" stroke="black" d="M173.55,-365.76C173.55,-357.66 173.55,-349.11 173.55,-340.87"/>
<polygon fill="black" stroke="black" points="177.05,-341.03 173.55,-331.03 170.05,-341.03 177.05,-341.03"/>
</g>
<!-- S8 -->
<g id="node8" class="node">
<title>S8</title>
<path fill="#ffe5b4" stroke="black" d="M297.98,-223.8C297.98,-223.8 49.12,-223.8 49.12,-223.8 43.12,-223.8 37.12,-217.8 37.12,-211.8 37.12,-211.8 37.12,-140.4 37.12,-140.4 37.12,-134.4 43.12,-128.4 49.12,-128.4 49.12,-128.4 297.98,-128.4 297.98,-128.4 303.98,-128.4 309.98,-134.4 309.98,-140.4 309.98,-140.4 309.98,-211.8 309.98,-211.8 309.98,-217.8 303.98,-223.8 297.98,-223.8"/>
<text xml:space="preserve" text-anchor="middle" x="173.55" y="-206.15" font-family="Helvetica,sans-Serif" font-size="11.00">Elo&#45;Gating (Task #62)</text>
<text xml:space="preserve" text-anchor="middle" x="173.55" y="-192.65" font-family="Helvetica,sans-Serif" font-size="11.00">Kader: Heuristik@200 (fester Elo&#45;Anker),</text>
<text xml:space="preserve" text-anchor="middle" x="173.55" y="-179.15" font-family="Helvetica,sans-Serif" font-size="11.00">Champion@400, Alt&#45;Champion@400. Neues Modell</text>
<text xml:space="preserve" text-anchor="middle" x="173.55" y="-165.65" font-family="Helvetica,sans-Serif" font-size="11.00">wird nur Champion, wenn es den amtierenden</text>
<text xml:space="preserve" text-anchor="middle" x="173.55" y="-152.15" font-family="Helvetica,sans-Serif" font-size="11.00">schlägt (gepaartes Seed&#45;Design, McNemar —</text>
<text xml:space="preserve" text-anchor="middle" x="173.55" y="-138.65" font-family="Helvetica,sans-Serif" font-size="11.00">Schablone aus der Floor&#45;Shaping&#45;Analyse)</text>
</g>
<!-- S7&#45;&gt;S8 -->
<g id="edge7" class="edge">
<title>S7&#45;&gt;S8</title>
<path fill="none" stroke="black" d="M173.55,-260.5C173.55,-252.62 173.55,-243.99 173.55,-235.37"/>
<polygon fill="black" stroke="black" points="177.05,-235.62 173.55,-225.62 170.05,-235.62 177.05,-235.62"/>
</g>
<!-- S8&#45;&gt;S6 -->
<g id="edge9" class="edge">
<title>S8&#45;&gt;S6</title>
<path fill="none" stroke="black" stroke-dasharray="5,2" d="M260.39,-224.09C293.4,-242.16 323.47,-258.96 324.55,-260.8 339.98,-286.99 340.43,-303.28 324.55,-329.2 318.51,-339.06 301.93,-350.13 281.86,-360.72"/>
<polygon fill="black" stroke="black" points="280.42,-357.53 273.1,-365.19 283.6,-363.76 280.42,-357.53"/>
<text xml:space="preserve" text-anchor="middle" x="418.04" y="-296.95" font-family="Helvetica,sans-Serif" font-size="9.00">nicht bestanden: Hyperparameter/Daten</text>
<text xml:space="preserve" text-anchor="middle" x="418.04" y="-286.45" font-family="Helvetica,sans-Serif" font-size="9.00">nachziehen statt Generator wechseln</text>
</g>
<!-- S9 -->
<g id="node9" class="node">
<title>S9</title>
<path fill="#cfe2ff" stroke="black" d="M278.85,-81.9C278.85,-81.9 68.25,-81.9 68.25,-81.9 62.25,-81.9 56.25,-75.9 56.25,-69.9 56.25,-69.9 56.25,-12 56.25,-12 56.25,-6 62.25,0 68.25,0 68.25,0 278.85,0 278.85,0 284.85,0 290.85,-6 290.85,-12 290.85,-12 290.85,-69.9 290.85,-69.9 290.85,-75.9 284.85,-81.9 278.85,-81.9"/>
<text xml:space="preserve" text-anchor="middle" x="173.55" y="-64.25" font-family="Helvetica,sans-Serif" font-size="11.00">Nächste Generation (Replay&#45;Fenster)</text>
<text xml:space="preserve" text-anchor="middle" x="173.55" y="-50.75" font-family="Helvetica,sans-Serif" font-size="11.00">Korpus: ~5000 Spiele vom neuen Champion</text>
<text xml:space="preserve" text-anchor="middle" x="173.55" y="-37.25" font-family="Helvetica,sans-Serif" font-size="11.00">+ je ~1000 der letzten 2 Alt&#45;Champions</text>
<text xml:space="preserve" text-anchor="middle" x="173.55" y="-23.75" font-family="Helvetica,sans-Serif" font-size="11.00">(Datei&#45;Subsampling; Batchgröße wird per</text>
<text xml:space="preserve" text-anchor="middle" x="173.55" y="-10.25" font-family="Helvetica,sans-Serif" font-size="11.00">Skalierungs&#45;Ablation #69 kalibriert)</text>
</g>
<!-- S8&#45;&gt;S9 -->
<g id="edge8" class="edge">
<title>S8&#45;&gt;S9</title>
<path fill="none" stroke="black" d="M173.55,-128.16C173.55,-116.93 173.55,-104.88 173.55,-93.45"/>
<polygon fill="black" stroke="black" points="177.05,-93.8 173.55,-83.8 170.05,-93.8 177.05,-93.8"/>
<text xml:space="preserve" text-anchor="middle" x="219.3" y="-101.85" font-family="Helvetica,sans-Serif" font-size="9.00">Champion gewechselt</text>
</g>
<!-- S9&#45;&gt;S1 -->
<g id="edge10" class="edge">
<title>S9&#45;&gt;S1</title>
<path fill="none" stroke="black" stroke-dasharray="5,2" d="M243.97,-82.34C267.91,-96.49 294.64,-112.75 318.55,-128.4 403.16,-183.76 457.33,-170.88 503.55,-260.8 517.45,-287.84 508.33,-299.18 503.55,-329.2 457.87,-616.17 481.2,-723.09 300.55,-950.7 291.55,-962.04 280.38,-972.12 268.43,-980.93"/>
<polygon fill="black" stroke="black" points="266.58,-977.95 260.4,-986.55 270.6,-983.68 266.58,-977.95"/>
<text xml:space="preserve" text-anchor="middle" x="508.09" y="-536.25" font-family="Helvetica,sans-Serif" font-size="9.00">neuer Zyklus</text>
</g>
</g>
</svg>
