<?xml version="1.0" encoding="UTF-8" standalone="no"?>
<!DOCTYPE svg PUBLIC "-//W3C//DTD SVG 1.1//EN"
 "http://www.w3.org/Graphics/SVG/1.1/DTD/svg11.dtd">
<!-- Generated by graphviz version 15.1.0 (20260618.0150)
 -->
<!-- Title: Spielablauf Pages: 1 -->
<svg width="302pt" height="562pt"
 viewBox="0.00 0.00 302.00 562.00" xmlns="http://www.w3.org/2000/svg" xmlns:xlink="http://www.w3.org/1999/xlink">
<g id="graph0" class="graph" transform="scale(1 1) rotate(0) translate(4 557.5)">
<title>Spielablauf</title>
<polygon fill="white" stroke="none" points="-4,4 -4,-557.5 297.85,-557.5 297.85,4 -4,4"/>
<!-- R1 -->
<g id="node1" class="node">
<title>R1</title>
<path fill="#cfe2ff" stroke="black" d="M260.48,-553.5C260.48,-553.5 33.38,-553.5 33.38,-553.5 27.38,-553.5 21.38,-547.5 21.38,-541.5 21.38,-541.5 21.38,-497.1 21.38,-497.1 21.38,-491.1 27.38,-485.1 33.38,-485.1 33.38,-485.1 260.48,-485.1 260.48,-485.1 266.48,-485.1 272.48,-491.1 272.48,-497.1 272.48,-497.1 272.48,-541.5 272.48,-541.5 272.48,-547.5 266.48,-553.5 260.48,-553.5"/>
<text xml:space="preserve" text-anchor="middle" x="146.93" y="-535.85" font-family="Helvetica,sans-Serif" font-size="11.00">Runde 1 — Drafting</text>
<text xml:space="preserve" text-anchor="middle" x="146.93" y="-522.35" font-family="Helvetica,sans-Serif" font-size="11.00">AlphaZero: Netz&#45;Policy&#45;Priors + Gumbel&#45;Suche</text>
<text xml:space="preserve" text-anchor="middle" x="146.93" y="-508.85" font-family="Helvetica,sans-Serif" font-size="11.00">(Top&#45;m + Sequential Halving, siehe netz_suche)</text>
<text xml:space="preserve" text-anchor="middle" x="146.93" y="-495.35" font-family="Helvetica,sans-Serif" font-size="11.00">(Tiling danach: exakter DFS&#45;Solver)</text>
</g>
<!-- U1 -->
<g id="node2" class="node">
<title>U1</title>
<path fill="#ffe5b4" stroke="black" d="M281.85,-448.1C281.85,-448.1 12,-448.1 12,-448.1 6,-448.1 0,-442.1 0,-436.1 0,-436.1 0,-297.2 0,-297.2 0,-291.2 6,-285.2 12,-285.2 12,-285.2 281.85,-285.2 281.85,-285.2 287.85,-285.2 293.85,-291.2 293.85,-297.2 293.85,-297.2 293.85,-436.1 293.85,-436.1 293.85,-442.1 287.85,-448.1 281.85,-448.1"/>
<text xml:space="preserve" text-anchor="middle" x="146.93" y="-430.45" font-family="Helvetica,sans-Serif" font-size="11.00">Rundenübergang r→r+1</text>
<text xml:space="preserve" text-anchor="middle" x="146.93" y="-416.95" font-family="Helvetica,sans-Serif" font-size="11.00">Chance&#45;Node: mehrere Fabrik&#45;/Bonuschip&#45;</text>
<text xml:space="preserve" text-anchor="middle" x="146.93" y="-403.45" font-family="Helvetica,sans-Serif" font-size="11.00">Neubefüllungen gesampelt, je Sample die</text>
<text xml:space="preserve" text-anchor="middle" x="146.93" y="-389.95" font-family="Helvetica,sans-Serif" font-size="11.00">Restrunde simuliert (Gamma&#45;Pruning für</text>
<text xml:space="preserve" text-anchor="middle" x="146.93" y="-376.45" font-family="Helvetica,sans-Serif" font-size="11.00">rundenendende Geschwister&#45;Kandidaten)</text>
<text xml:space="preserve" text-anchor="middle" x="146.93" y="-362.95" font-family="Helvetica,sans-Serif" font-size="11.00">→ gemittelt zu round_transition_value</text>
<text xml:space="preserve" text-anchor="middle" x="146.93" y="-349.45" font-family="Helvetica,sans-Serif" font-size="11.00">(voller Rollout bis Spielende)</text>
<text xml:space="preserve" text-anchor="middle" x="146.93" y="-335.95" font-family="Helvetica,sans-Serif" font-size="11.00">+ bootstrap_value (Punkt 6, TD&#45;Ziel: NUR</text>
<text xml:space="preserve" text-anchor="middle" x="146.93" y="-322.45" font-family="Helvetica,sans-Serif" font-size="11.00">BOOTSTRAP_HORIZON_ROUNDS=2 Runden voraus,</text>
<text xml:space="preserve" text-anchor="middle" x="146.93" y="-308.95" font-family="Helvetica,sans-Serif" font-size="11.00">dann direkte net_leaf_eval — näherer,</text>
<text xml:space="preserve" text-anchor="middle" x="146.93" y="-295.45" font-family="Helvetica,sans-Serif" font-size="11.00">laut Noise&#45;Floor&#45;Test höherer R²&#45;Deckel)</text>
</g>
<!-- R1&#45;&gt;U1 -->
<g id="edge1" class="edge">
<title>R1&#45;&gt;U1</title>
<path fill="none" stroke="black" d="M146.93,-484.87C146.93,-477.19 146.93,-468.65 146.93,-459.8"/>
<polygon fill="black" stroke="black" points="150.43,-459.95 146.93,-449.95 143.43,-459.95 150.43,-459.95"/>
</g>
<!-- R2 -->
<g id="node3" class="node">
<title>R2</title>
<path fill="#cfe2ff" stroke="black" d="M251.48,-238.7C251.48,-238.7 42.38,-238.7 42.38,-238.7 36.38,-238.7 30.38,-232.7 30.38,-226.7 30.38,-226.7 30.38,-209.3 30.38,-209.3 30.38,-203.3 36.38,-197.3 42.38,-197.3 42.38,-197.3 251.48,-197.3 251.48,-197.3 257.48,-197.3 263.48,-203.3 263.48,-209.3 263.48,-209.3 263.48,-226.7 263.48,-226.7 263.48,-232.7 257.48,-238.7 251.48,-238.7"/>
<text xml:space="preserve" text-anchor="middle" x="146.93" y="-221.05" font-family="Helvetica,sans-Serif" font-size="11.00">Runde 2, 3, 4 — Drafting</text>
<text xml:space="preserve" text-anchor="middle" x="146.93" y="-207.55" font-family="Helvetica,sans-Serif" font-size="11.00">(gleicher Ablauf wie Runde 1, x3 wiederholt)</text>
</g>
<!-- U1&#45;&gt;R2 -->
<g id="edge2" class="edge">
<title>U1&#45;&gt;R2</title>
<path fill="none" stroke="black" d="M146.93,-285.03C146.93,-272.69 146.93,-260.63 146.93,-250.26"/>
<polygon fill="black" stroke="black" points="150.43,-250.46 146.93,-240.46 143.43,-250.46 150.43,-250.46"/>
</g>
<!-- R2&#45;&gt;U1 -->
<g id="edge5" class="edge">
<title>R2&#45;&gt;U1</title>
<path fill="none" stroke="black" stroke-dasharray="5,2" d="M153.94,-239.12C155.58,-244.74 157.1,-250.9 157.93,-256.7 158.72,-262.26 159.18,-267.99 159.38,-273.78"/>
<polygon fill="black" stroke="black" points="155.88,-273.45 159.45,-283.43 162.88,-273.4 155.88,-273.45"/>
<text xml:space="preserve" text-anchor="middle" x="209.53" y="-258.65" font-family="Helvetica,sans-Serif" font-size="9.00">wiederholt für 2→3, 3→4</text>
</g>
<!-- U4 -->
<g id="node4" class="node">
<title>U4</title>
<path fill="#ffe5b4" stroke="black" d="M261.6,-160.3C261.6,-160.3 32.25,-160.3 32.25,-160.3 26.25,-160.3 20.25,-154.3 20.25,-148.3 20.25,-148.3 20.25,-103.9 20.25,-103.9 20.25,-97.9 26.25,-91.9 32.25,-91.9 32.25,-91.9 261.6,-91.9 261.6,-91.9 267.6,-91.9 273.6,-97.9 273.6,-103.9 273.6,-103.9 273.6,-148.3 273.6,-148.3 273.6,-154.3 267.6,-160.3 261.6,-160.3"/>
<text xml:space="preserve" text-anchor="middle" x="146.93" y="-142.65" font-family="Helvetica,sans-Serif" font-size="11.00">Übergang 4→5 (Sonderfall)</text>
<text xml:space="preserve" text-anchor="middle" x="146.93" y="-129.15" font-family="Helvetica,sans-Serif" font-size="11.00">Kein Sampling nötig — Runde 5 hat keine</text>
<text xml:space="preserve" text-anchor="middle" x="146.93" y="-115.65" font-family="Helvetica,sans-Serif" font-size="11.00">Kuppelplatzierung mehr, exact_round5_outcome</text>
<text xml:space="preserve" text-anchor="middle" x="146.93" y="-102.15" font-family="Helvetica,sans-Serif" font-size="11.00">löst sie direkt exakt (Freebie)</text>
</g>
<!-- R2&#45;&gt;U4 -->
<g id="edge3" class="edge">
<title>R2&#45;&gt;U4</title>
<path fill="none" stroke="black" d="M146.93,-197.05C146.93,-189.64 146.93,-180.9 146.93,-172.16"/>
<polygon fill="black" stroke="black" points="150.43,-172.28 146.93,-162.28 143.43,-172.28 150.43,-172.28"/>
</g>
<!-- R5 -->
<g id="node5" class="node">
<title>R5</title>
<path fill="#cfe2ff" stroke="black" d="M230.1,-54.9C230.1,-54.9 63.75,-54.9 63.75,-54.9 57.75,-54.9 51.75,-48.9 51.75,-42.9 51.75,-42.9 51.75,-12 51.75,-12 51.75,-6 57.75,0 63.75,0 63.75,0 230.1,0 230.1,0 236.1,0 242.1,-6 242.1,-12 242.1,-12 242.1,-42.9 242.1,-42.9 242.1,-48.9 236.1,-54.9 230.1,-54.9"/>
<text xml:space="preserve" text-anchor="middle" x="146.93" y="-37.25" font-family="Helvetica,sans-Serif" font-size="11.00">Runde 5</text>
<text xml:space="preserve" text-anchor="middle" x="146.93" y="-23.75" font-family="Helvetica,sans-Serif" font-size="11.00">Exakte Alpha&#45;Beta&#45;Suche</text>
<text xml:space="preserve" text-anchor="middle" x="146.93" y="-10.25" font-family="Helvetica,sans-Serif" font-size="11.00">(volle Information, kein Zufall mehr)</text>
</g>
<!-- U4&#45;&gt;R5 -->
<g id="edge4" class="edge">
<title>U4&#45;&gt;R5</title>
<path fill="none" stroke="black" d="M146.93,-91.57C146.93,-83.49 146.93,-74.8 146.93,-66.53"/>
<polygon fill="black" stroke="black" points="150.43,-66.74 146.93,-56.74 143.43,-66.74 150.43,-66.74"/>
</g>
</g>
</svg>
