<?xml version="1.0" encoding="UTF-8" standalone="no"?>
<!DOCTYPE svg PUBLIC "-//W3C//DTD SVG 1.1//EN"
 "http://www.w3.org/Graphics/SVG/1.1/DTD/svg11.dtd">
<!-- Generated by graphviz version 15.1.0 (20260618.0150)
 -->
<!-- Title: Spielablauf Pages: 1 -->
<svg width="261pt" height="494pt"
 viewBox="0.00 0.00 261.00 494.00" xmlns="http://www.w3.org/2000/svg" xmlns:xlink="http://www.w3.org/1999/xlink">
<g id="graph0" class="graph" transform="scale(1 1) rotate(0) translate(4 490)">
<title>Spielablauf</title>
<polygon fill="white" stroke="none" points="-4,4 -4,-490 257.35,-490 257.35,4 -4,4"/>
<!-- R1 -->
<g id="node1" class="node">
<title>R1</title>
<path fill="#cfe2ff" stroke="black" d="M240.22,-486C240.22,-486 13.12,-486 13.12,-486 7.12,-486 1.12,-480 1.12,-474 1.12,-474 1.12,-429.6 1.12,-429.6 1.12,-423.6 7.12,-417.6 13.12,-417.6 13.12,-417.6 240.22,-417.6 240.22,-417.6 246.22,-417.6 252.22,-423.6 252.22,-429.6 252.22,-429.6 252.22,-474 252.22,-474 252.22,-480 246.22,-486 240.22,-486"/>
<text xml:space="preserve" text-anchor="middle" x="126.67" y="-468.35" font-family="Helvetica,sans-Serif" font-size="11.00">Runde 1 — Drafting</text>
<text xml:space="preserve" text-anchor="middle" x="126.67" y="-454.85" font-family="Helvetica,sans-Serif" font-size="11.00">AlphaZero: Netz&#45;Policy&#45;Priors + Gumbel&#45;Suche</text>
<text xml:space="preserve" text-anchor="middle" x="126.67" y="-441.35" font-family="Helvetica,sans-Serif" font-size="11.00">(Top&#45;m + Sequential Halving, siehe netz_suche)</text>
<text xml:space="preserve" text-anchor="middle" x="126.67" y="-427.85" font-family="Helvetica,sans-Serif" font-size="11.00">(Tiling danach: exakter DFS&#45;Solver)</text>
</g>
<!-- U1 -->
<g id="node2" class="node">
<title>U1</title>
<path fill="#ffe5b4" stroke="black" d="M229.35,-380.6C229.35,-380.6 24,-380.6 24,-380.6 18,-380.6 12,-374.6 12,-368.6 12,-368.6 12,-297.2 12,-297.2 12,-291.2 18,-285.2 24,-285.2 24,-285.2 229.35,-285.2 229.35,-285.2 235.35,-285.2 241.35,-291.2 241.35,-297.2 241.35,-297.2 241.35,-368.6 241.35,-368.6 241.35,-374.6 235.35,-380.6 229.35,-380.6"/>
<text xml:space="preserve" text-anchor="middle" x="126.67" y="-362.95" font-family="Helvetica,sans-Serif" font-size="11.00">Rundenübergang r→r+1</text>
<text xml:space="preserve" text-anchor="middle" x="126.67" y="-349.45" font-family="Helvetica,sans-Serif" font-size="11.00">Chance&#45;Node: mehrere Fabrik&#45;/Bonuschip&#45;</text>
<text xml:space="preserve" text-anchor="middle" x="126.67" y="-335.95" font-family="Helvetica,sans-Serif" font-size="11.00">Neubefüllungen gesampelt, je Sample die</text>
<text xml:space="preserve" text-anchor="middle" x="126.67" y="-322.45" font-family="Helvetica,sans-Serif" font-size="11.00">Restrunde simuliert (Gamma&#45;Pruning für</text>
<text xml:space="preserve" text-anchor="middle" x="126.67" y="-308.95" font-family="Helvetica,sans-Serif" font-size="11.00">rundenendende Geschwister&#45;Kandidaten)</text>
<text xml:space="preserve" text-anchor="middle" x="126.67" y="-295.45" font-family="Helvetica,sans-Serif" font-size="11.00">→ gemittelt zu round_transition_value</text>
</g>
<!-- R1&#45;&gt;U1 -->
<g id="edge1" class="edge">
<title>R1&#45;&gt;U1</title>
<path fill="none" stroke="black" d="M126.67,-417.3C126.67,-409.42 126.67,-400.79 126.67,-392.17"/>
<polygon fill="black" stroke="black" points="130.18,-392.42 126.68,-382.42 123.18,-392.42 130.18,-392.42"/>
</g>
<!-- R2 -->
<g id="node3" class="node">
<title>R2</title>
<path fill="#cfe2ff" stroke="black" d="M231.22,-238.7C231.22,-238.7 22.12,-238.7 22.12,-238.7 16.12,-238.7 10.12,-232.7 10.12,-226.7 10.12,-226.7 10.12,-209.3 10.12,-209.3 10.12,-203.3 16.12,-197.3 22.12,-197.3 22.12,-197.3 231.22,-197.3 231.22,-197.3 237.22,-197.3 243.22,-203.3 243.22,-209.3 243.22,-209.3 243.22,-226.7 243.22,-226.7 243.22,-232.7 237.22,-238.7 231.22,-238.7"/>
<text xml:space="preserve" text-anchor="middle" x="126.67" y="-221.05" font-family="Helvetica,sans-Serif" font-size="11.00">Runde 2, 3, 4 — Drafting</text>
<text xml:space="preserve" text-anchor="middle" x="126.67" y="-207.55" font-family="Helvetica,sans-Serif" font-size="11.00">(gleicher Ablauf wie Runde 1, x3 wiederholt)</text>
</g>
<!-- U1&#45;&gt;R2 -->
<g id="edge2" class="edge">
<title>U1&#45;&gt;R2</title>
<path fill="none" stroke="black" d="M126.67,-285C126.67,-273.38 126.67,-261.2 126.67,-250.52"/>
<polygon fill="black" stroke="black" points="130.18,-250.71 126.68,-240.71 123.18,-250.71 130.18,-250.71"/>
</g>
<!-- R2&#45;&gt;U1 -->
<g id="edge5" class="edge">
<title>R2&#45;&gt;U1</title>
<path fill="none" stroke="black" stroke-dasharray="5,2" d="M133.69,-239.12C135.33,-244.74 136.85,-250.9 137.68,-256.7 138.47,-262.27 138.7,-268.07 138.52,-273.88"/>
<polygon fill="black" stroke="black" points="135.06,-273.24 137.83,-283.46 142.04,-273.74 135.06,-273.24"/>
<text xml:space="preserve" text-anchor="middle" x="189.15" y="-258.65" font-family="Helvetica,sans-Serif" font-size="9.00">wiederholt für 2→3, 3→4</text>
</g>
<!-- U4 -->
<g id="node4" class="node">
<title>U4</title>
<path fill="#ffe5b4" stroke="black" d="M241.35,-160.3C241.35,-160.3 12,-160.3 12,-160.3 6,-160.3 0,-154.3 0,-148.3 0,-148.3 0,-103.9 0,-103.9 0,-97.9 6,-91.9 12,-91.9 12,-91.9 241.35,-91.9 241.35,-91.9 247.35,-91.9 253.35,-97.9 253.35,-103.9 253.35,-103.9 253.35,-148.3 253.35,-148.3 253.35,-154.3 247.35,-160.3 241.35,-160.3"/>
<text xml:space="preserve" text-anchor="middle" x="126.67" y="-142.65" font-family="Helvetica,sans-Serif" font-size="11.00">Übergang 4→5 (Sonderfall)</text>
<text xml:space="preserve" text-anchor="middle" x="126.67" y="-129.15" font-family="Helvetica,sans-Serif" font-size="11.00">Kein Sampling nötig — Runde 5 hat keine</text>
<text xml:space="preserve" text-anchor="middle" x="126.67" y="-115.65" font-family="Helvetica,sans-Serif" font-size="11.00">Kuppelplatzierung mehr, exact_round5_outcome</text>
<text xml:space="preserve" text-anchor="middle" x="126.67" y="-102.15" font-family="Helvetica,sans-Serif" font-size="11.00">löst sie direkt exakt (Freebie)</text>
</g>
<!-- R2&#45;&gt;U4 -->
<g id="edge3" class="edge">
<title>R2&#45;&gt;U4</title>
<path fill="none" stroke="black" d="M126.67,-197.05C126.67,-189.64 126.67,-180.9 126.67,-172.16"/>
<polygon fill="black" stroke="black" points="130.18,-172.28 126.68,-162.28 123.18,-172.28 130.18,-172.28"/>
</g>
<!-- R5 -->
<g id="node5" class="node">
<title>R5</title>
<path fill="#cfe2ff" stroke="black" d="M209.85,-54.9C209.85,-54.9 43.5,-54.9 43.5,-54.9 37.5,-54.9 31.5,-48.9 31.5,-42.9 31.5,-42.9 31.5,-12 31.5,-12 31.5,-6 37.5,0 43.5,0 43.5,0 209.85,0 209.85,0 215.85,0 221.85,-6 221.85,-12 221.85,-12 221.85,-42.9 221.85,-42.9 221.85,-48.9 215.85,-54.9 209.85,-54.9"/>
<text xml:space="preserve" text-anchor="middle" x="126.67" y="-37.25" font-family="Helvetica,sans-Serif" font-size="11.00">Runde 5</text>
<text xml:space="preserve" text-anchor="middle" x="126.67" y="-23.75" font-family="Helvetica,sans-Serif" font-size="11.00">Exakte Alpha&#45;Beta&#45;Suche</text>
<text xml:space="preserve" text-anchor="middle" x="126.67" y="-10.25" font-family="Helvetica,sans-Serif" font-size="11.00">(volle Information, kein Zufall mehr)</text>
</g>
<!-- U4&#45;&gt;R5 -->
<g id="edge4" class="edge">
<title>U4&#45;&gt;R5</title>
<path fill="none" stroke="black" d="M126.67,-91.57C126.67,-83.49 126.67,-74.8 126.67,-66.53"/>
<polygon fill="black" stroke="black" points="130.18,-66.74 126.68,-56.74 123.18,-66.74 130.18,-66.74"/>
</g>
</g>
</svg>
