<?xml version="1.0" encoding="UTF-8" standalone="no"?>
<!DOCTYPE svg PUBLIC "-//W3C//DTD SVG 1.1//EN"
 "http://www.w3.org/Graphics/SVG/1.1/DTD/svg11.dtd">
<!-- Generated by graphviz version 15.1.0 (20260618.0150)
 -->
<!-- Title: Spielablauf Pages: 1 -->
<svg width="302pt" height="629pt"
 viewBox="0.00 0.00 302.00 629.00" xmlns="http://www.w3.org/2000/svg" xmlns:xlink="http://www.w3.org/1999/xlink">
<g id="graph0" class="graph" transform="scale(1 1) rotate(0) translate(4 625)">
<title>Spielablauf</title>
<polygon fill="white" stroke="none" points="-4,4 -4,-625 297.85,-625 297.85,4 -4,4"/>
<!-- R1 -->
<g id="node1" class="node">
<title>R1</title>
<path fill="#cfe2ff" stroke="black" d="M260.48,-621C260.48,-621 33.38,-621 33.38,-621 27.38,-621 21.38,-615 21.38,-609 21.38,-609 21.38,-564.6 21.38,-564.6 21.38,-558.6 27.38,-552.6 33.38,-552.6 33.38,-552.6 260.48,-552.6 260.48,-552.6 266.48,-552.6 272.48,-558.6 272.48,-564.6 272.48,-564.6 272.48,-609 272.48,-609 272.48,-615 266.48,-621 260.48,-621"/>
<text xml:space="preserve" text-anchor="middle" x="146.93" y="-603.35" font-family="Helvetica,sans-Serif" font-size="11.00">Runde 1 — Drafting</text>
<text xml:space="preserve" text-anchor="middle" x="146.93" y="-589.85" font-family="Helvetica,sans-Serif" font-size="11.00">AlphaZero: Netz&#45;Policy&#45;Priors + Gumbel&#45;Suche</text>
<text xml:space="preserve" text-anchor="middle" x="146.93" y="-576.35" font-family="Helvetica,sans-Serif" font-size="11.00">(Top&#45;m + Sequential Halving, siehe netz_suche)</text>
<text xml:space="preserve" text-anchor="middle" x="146.93" y="-562.85" font-family="Helvetica,sans-Serif" font-size="11.00">(Tiling danach: exakter DFS&#45;Solver)</text>
</g>
<!-- U1 -->
<g id="node2" class="node">
<title>U1</title>
<path fill="#ffe5b4" stroke="black" d="M281.85,-515.6C281.85,-515.6 12,-515.6 12,-515.6 6,-515.6 0,-509.6 0,-503.6 0,-503.6 0,-324.2 0,-324.2 0,-318.2 6,-312.2 12,-312.2 12,-312.2 281.85,-312.2 281.85,-312.2 287.85,-312.2 293.85,-318.2 293.85,-324.2 293.85,-324.2 293.85,-503.6 293.85,-503.6 293.85,-509.6 287.85,-515.6 281.85,-515.6"/>
<text xml:space="preserve" text-anchor="middle" x="146.93" y="-497.95" font-family="Helvetica,sans-Serif" font-size="11.00">Rundenübergang r→r+1</text>
<text xml:space="preserve" text-anchor="middle" x="146.93" y="-484.45" font-family="Helvetica,sans-Serif" font-size="11.00">Chance&#45;Node: mehrere Fabrik&#45;/Bonuschip&#45;</text>
<text xml:space="preserve" text-anchor="middle" x="146.93" y="-470.95" font-family="Helvetica,sans-Serif" font-size="11.00">Neubefüllungen gesampelt, je Sample die</text>
<text xml:space="preserve" text-anchor="middle" x="146.93" y="-457.45" font-family="Helvetica,sans-Serif" font-size="11.00">Restrunde simuliert (Gamma&#45;Pruning für</text>
<text xml:space="preserve" text-anchor="middle" x="146.93" y="-443.95" font-family="Helvetica,sans-Serif" font-size="11.00">rundenendende Geschwister&#45;Kandidaten)</text>
<text xml:space="preserve" text-anchor="middle" x="146.93" y="-430.45" font-family="Helvetica,sans-Serif" font-size="11.00">→ gemittelt zu round_transition_value</text>
<text xml:space="preserve" text-anchor="middle" x="146.93" y="-416.95" font-family="Helvetica,sans-Serif" font-size="11.00">(voller Rollout bis Spielende)</text>
<text xml:space="preserve" text-anchor="middle" x="146.93" y="-403.45" font-family="Helvetica,sans-Serif" font-size="11.00">+ bootstrap_value (Punkt 6, TD&#45;Ziel: NUR</text>
<text xml:space="preserve" text-anchor="middle" x="146.93" y="-389.95" font-family="Helvetica,sans-Serif" font-size="11.00">BOOTSTRAP_HORIZON_ROUNDS=2 Runden voraus,</text>
<text xml:space="preserve" text-anchor="middle" x="146.93" y="-376.45" font-family="Helvetica,sans-Serif" font-size="11.00">dann direkte net_leaf_eval — näherer,</text>
<text xml:space="preserve" text-anchor="middle" x="146.93" y="-362.95" font-family="Helvetica,sans-Serif" font-size="11.00">laut Noise&#45;Floor&#45;Test höherer R²&#45;Deckel)</text>
<text xml:space="preserve" text-anchor="middle" x="146.93" y="-349.45" font-family="Helvetica,sans-Serif" font-size="11.00">Refill hänger&#45;sicher (Root&#45;Cause&#45;Fix 1a683d3:</text>
<text xml:space="preserve" text-anchor="middle" x="146.93" y="-335.95" font-family="Helvetica,sans-Serif" font-size="11.00">Erreichbarkeits&#45;Check + Iterations&#45;Deckel</text>
<text xml:space="preserve" text-anchor="middle" x="146.93" y="-322.45" font-family="Helvetica,sans-Serif" font-size="11.00">in fill_large_factory, Monochrom&#45;Fallback R3)</text>
</g>
<!-- R1&#45;&gt;U1 -->
<g id="edge1" class="edge">
<title>R1&#45;&gt;U1</title>
<path fill="none" stroke="black" d="M146.93,-552.44C146.93,-544.86 146.93,-536.4 146.93,-527.49"/>
<polygon fill="black" stroke="black" points="150.43,-527.52 146.93,-517.52 143.43,-527.52 150.43,-527.52"/>
</g>
<!-- R2 -->
<g id="node3" class="node">
<title>R2</title>
<path fill="#cfe2ff" stroke="black" d="M251.48,-265.7C251.48,-265.7 42.38,-265.7 42.38,-265.7 36.38,-265.7 30.38,-259.7 30.38,-253.7 30.38,-253.7 30.38,-236.3 30.38,-236.3 30.38,-230.3 36.38,-224.3 42.38,-224.3 42.38,-224.3 251.48,-224.3 251.48,-224.3 257.48,-224.3 263.48,-230.3 263.48,-236.3 263.48,-236.3 263.48,-253.7 263.48,-253.7 263.48,-259.7 257.48,-265.7 251.48,-265.7"/>
<text xml:space="preserve" text-anchor="middle" x="146.93" y="-248.05" font-family="Helvetica,sans-Serif" font-size="11.00">Runde 2, 3, 4 — Drafting</text>
<text xml:space="preserve" text-anchor="middle" x="146.93" y="-234.55" font-family="Helvetica,sans-Serif" font-size="11.00">(gleicher Ablauf wie Runde 1, x3 wiederholt)</text>
</g>
<!-- U1&#45;&gt;R2 -->
<g id="edge2" class="edge">
<title>U1&#45;&gt;R2</title>
<path fill="none" stroke="black" d="M146.93,-311.96C146.93,-299.57 146.93,-287.71 146.93,-277.55"/>
<polygon fill="black" stroke="black" points="150.43,-277.6 146.93,-267.6 143.43,-277.6 150.43,-277.6"/>
</g>
<!-- R2&#45;&gt;U1 -->
<g id="edge5" class="edge">
<title>R2&#45;&gt;U1</title>
<path fill="none" stroke="black" stroke-dasharray="5,2" d="M153.94,-266.12C155.58,-271.74 157.1,-277.9 157.93,-283.7 158.72,-289.27 159.26,-294.98 159.58,-300.75"/>
<polygon fill="black" stroke="black" points="156.07,-300.52 159.88,-310.4 163.06,-300.29 156.07,-300.52"/>
<text xml:space="preserve" text-anchor="middle" x="209.73" y="-285.65" font-family="Helvetica,sans-Serif" font-size="9.00">wiederholt für 2→3, 3→4</text>
</g>
<!-- U4 -->
<g id="node4" class="node">
<title>U4</title>
<path fill="#ffe5b4" stroke="black" d="M261.6,-187.3C261.6,-187.3 32.25,-187.3 32.25,-187.3 26.25,-187.3 20.25,-181.3 20.25,-175.3 20.25,-175.3 20.25,-130.9 20.25,-130.9 20.25,-124.9 26.25,-118.9 32.25,-118.9 32.25,-118.9 261.6,-118.9 261.6,-118.9 267.6,-118.9 273.6,-124.9 273.6,-130.9 273.6,-130.9 273.6,-175.3 273.6,-175.3 273.6,-181.3 267.6,-187.3 261.6,-187.3"/>
<text xml:space="preserve" text-anchor="middle" x="146.93" y="-169.65" font-family="Helvetica,sans-Serif" font-size="11.00">Übergang 4→5 (Sonderfall)</text>
<text xml:space="preserve" text-anchor="middle" x="146.93" y="-156.15" font-family="Helvetica,sans-Serif" font-size="11.00">Kein Sampling nötig — Runde 5 hat keine</text>
<text xml:space="preserve" text-anchor="middle" x="146.93" y="-142.65" font-family="Helvetica,sans-Serif" font-size="11.00">Kuppelplatzierung mehr, exact_round5_outcome</text>
<text xml:space="preserve" text-anchor="middle" x="146.93" y="-129.15" font-family="Helvetica,sans-Serif" font-size="11.00">löst sie direkt exakt (Freebie)</text>
</g>
<!-- R2&#45;&gt;U4 -->
<g id="edge3" class="edge">
<title>R2&#45;&gt;U4</title>
<path fill="none" stroke="black" d="M146.93,-224.05C146.93,-216.64 146.93,-207.9 146.93,-199.16"/>
<polygon fill="black" stroke="black" points="150.43,-199.28 146.93,-189.28 143.43,-199.28 150.43,-199.28"/>
</g>
<!-- R5 -->
<g id="node5" class="node">
<title>R5</title>
<path fill="#cfe2ff" stroke="black" d="M247.73,-81.9C247.73,-81.9 46.12,-81.9 46.12,-81.9 40.12,-81.9 34.13,-75.9 34.13,-69.9 34.13,-69.9 34.13,-12 34.13,-12 34.13,-6 40.13,0 46.13,0 46.13,0 247.73,0 247.73,0 253.73,0 259.73,-6 259.73,-12 259.73,-12 259.73,-69.9 259.73,-69.9 259.73,-75.9 253.73,-81.9 247.73,-81.9"/>
<text xml:space="preserve" text-anchor="middle" x="146.93" y="-64.25" font-family="Helvetica,sans-Serif" font-size="11.00">Runde 5</text>
<text xml:space="preserve" text-anchor="middle" x="146.93" y="-50.75" font-family="Helvetica,sans-Serif" font-size="11.00">Exakte Alpha&#45;Beta&#45;Suche</text>
<text xml:space="preserve" text-anchor="middle" x="146.93" y="-37.25" font-family="Helvetica,sans-Serif" font-size="11.00">(volle Information, kein Zufall mehr)</text>
<text xml:space="preserve" text-anchor="middle" x="146.93" y="-23.75" font-family="Helvetica,sans-Serif" font-size="11.00">Greift in BEIDEN Suchpfaden an allen vier</text>
<text xml:space="preserve" text-anchor="middle" x="146.93" y="-10.25" font-family="Helvetica,sans-Serif" font-size="11.00">Netz&#45;Einstiegspunkten (round5::applies)</text>
</g>
<!-- U4&#45;&gt;R5 -->
<g id="edge4" class="edge">
<title>U4&#45;&gt;R5</title>
<path fill="none" stroke="black" d="M146.93,-118.45C146.93,-110.62 146.93,-102.11 146.93,-93.7"/>
<polygon fill="black" stroke="black" points="150.43,-93.88 146.93,-83.88 143.43,-93.88 150.43,-93.88"/>
</g>
</g>
</svg>
